<svg xmlns="http://www.w3.org/2000/svg" viewBox="0 0 200 200" height="200" width="200"><defs><linearGradient id="a" gradientTransform="matrix(0 600 600 0 143 -385)" gradientUnits="userSpaceOnUse" x2="1"><stop offset="0" stop-color="#d887c7"/><stop offset=".22851412" stop-color="#d887c7"/><stop offset="1" stop-color="#00e4e4"/></linearGradient><linearGradient id="b" gradientTransform="matrix(36 0 0 -36 57 26.5)" gradientUnits="userSpaceOnUse" x2="1"><stop offset="0" stop-color="#00e4e4"/><stop offset=".77148588" stop-color="#d887c7"/><stop offset="1" stop-color="#d887c7"/></linearGradient><clipPath id="c"><path d="M0 150h150V0H0z"/></clipPath><linearGradient id="d" gradientTransform="matrix(92 0 0 -92 29 74.5)" gradientUnits="userSpaceOnUse" x2="1"><stop offset="0" stop-color="#d887c7"/><stop offset=".22851412" stop-color="#d887c7"/><stop offset="1" stop-color="#00e4e4"/></linearGradient><clipPath id="e"><path d="M0 150h150V0H0z"/></clipPath><linearGradient id="f" gradientTransform="matrix(80 0 0 -80 35 83.02)" gradientUnits="userSpaceOnUse" x2="1"><stop offset="0" stop-color="#00e4e4"/><stop offset=".77148588" stop-color="#d887c7"/><stop offset="1" stop-color="#d887c7"/></linearGradient><clipPath id="g"><path d="M0 150h150V0H0z"/></clipPath><linearGradient id="h" gradientTransform="matrix(64 0 0 -64 43 78.196)" gradientUnits="userSpaceOnUse" x2="1"><stop offset="0" stop-color="#00efef"/><stop offset=".99496547" stop-color="#d887c7"/><stop offset="1" stop-color="#d887c7"/></linearGradient><clipPath id="i"><path d="M0 150h150V0H0z"/></clipPath><linearGradient id="j" gradientTransform="matrix(23 0 0 -23 77.004 85.5)" gradientUnits="userSpaceOnUse" x2="1"><stop offset="0" stop-color="#00e4e4"/><stop offset=".77148588" stop-color="#e3a6d6"/><stop offset="1" stop-color="#e3a6d6"/></linearGradient><clipPath id="k"><path d="M0 150h150V0H0z"/></clipPath><linearGradient id="l" gradientTransform="matrix(23 0 0 -23 49.996 85.5)" gradientUnits="userSpaceOnUse" x2="1"><stop offset="0" stop-color="#e3a6d6"/><stop offset=".22851412" stop-color="#e3a6d6"/><stop offset="1" stop-color="#00e4e4"/></linearGradient><clipPath id="m"><path d="M0 150h150V0H0z"/></clipPath><clipPath id="n"><path d="M-257 215h800v-600h-800z"/></clipPath></defs><path d="M0 0h150v150H0z" fill="url(#a)" transform="matrix(1.33333 0 0 -1.33333 0 200)"/><path d="M57 18h36v17H57z" fill="url(#b)" transform="matrix(1.33333 0 0 -1.33333 0 200)"/><g clip-path="url(#c)" transform="matrix(1.33333 0 0 -1.33333 0 200)"><path d="M57 35V18h36v17" fill="none" stroke="#303030" stroke-width="4" stroke-linecap="round" stroke-linejoin="round" stroke-miterlimit="10"/></g><path d="M29.115 86c-.077-1-.115-2.491-.115-3.783C29 75.542 29.939 69 31.684 63h86.633C120.061 69 121 75.542 121 82.217c0 1.292-.038 2.783-.115 3.783z" fill="url(#d)" transform="matrix(1.33333 0 0 -1.33333 0 200)"/><g clip-path="url(#e)" transform="matrix(1.33333 0 0 -1.33333 0 200)"><path d="M121 82.2166c0-6.675-.939-13.217-2.683-19.217H31.683c-1.744 6-2.683 12.542-2.683 19.217 0 1.293.038 2.783.115 3.783h91.77c.077-1 .115-2.49.115-3.783z" fill="none" stroke="#303030" stroke-width="4" stroke-linejoin="round" stroke-miterlimit="10"/></g><path d="M66.272 133.32c-2.844-4.354-6.871-7.778-11.287-10.497C42.601 115.199 35 100.289 35 82c0-28.783 18.553-53.961 40-53.961 21.448 0 40 25.178 40 53.961 0 18.289-7.6 33.199-19.984 40.823-4.417 2.719-8.444 6.143-11.289 10.497C82.108 135.799 79.332 138 75 138c-4.333 0-7.108-2.201-8.728-4.68" fill="url(#f)" transform="matrix(1.33333 0 0 -1.33333 0 200)"/><g clip-path="url(#g)" transform="matrix(1.33333 0 0 -1.33333 0 200)"><path d="M54.9845 122.8226c4.417 2.719 8.444 6.143 11.288 10.497 1.62 2.48 4.395 4.68 8.727 4.68 4.333 0 7.108-2.2 8.728-4.68 2.844-4.354 6.871-7.778 11.288-10.497 12.384-7.624 19.984-22.534 19.984-40.823 0-28.783-18.552-53.961-40-53.961-21.447 0-40 25.178-40 53.961 0 18.289 7.601 33.199 19.985 40.823z" fill="none" stroke="#303030" stroke-width="4" stroke-linejoin="round" stroke-miterlimit="10"/></g><path d="M43 82c0-24.598 14.953-46.175 32-46.175S107 57.402 107 82c0 22.347-13.458 38.567-32 38.567S43 104.347 43 82" fill="url(#h)" transform="matrix(1.33333 0 0 -1.33333 0 200)"/><g clip-path="url(#i)" transform="matrix(1.33333 0 0 -1.33333 0 200)"><path d="M75 122.5668c-19.054 0-34-16.062-34-40.567s14.946-48.174 34-48.174c19.054 0 34 23.669 34 48.174s-14.946 40.567-34 40.567m0-4c8.207 0 15.707-3.448 21.119-9.71 5.81-6.722 8.881-16.009 8.881-26.857 0-11.171-3.339-22.479-9.161-31.024-5.777-8.48-13.178-13.15-20.839-13.15-7.661 0-15.062 4.67-20.839 13.15C48.339 59.5208 45 70.8288 45 81.9998c0 10.848 3.071 20.135 8.881 26.857 5.412 6.262 12.912 9.71 21.119 9.71" fill="#8cf7f7"/><path d="M109 82c0-24.505-14.946-48.174-34-48.174-19.054 0-34 23.669-34 48.174s14.946 40.567 34 40.567c19.054 0 34-16.062 34-40.567z" fill="none" stroke="#303030" stroke-width="4" stroke-linecap="round" stroke-linejoin="round" stroke-miterlimit="10"/><path d="M50 85.9128c0-25.313 12.384-50.158 25-50.158s25 24.845 25 50.158" fill="none" stroke="#e3a6d6" stroke-width="4" stroke-linecap="round" stroke-linejoin="round" stroke-miterlimit="10"/><path d="M75 85V34" fill="none" stroke="#303030" stroke-width="4" stroke-linecap="round" stroke-linejoin="round" stroke-miterlimit="10"/></g><path d="M77.004 85.5c0-6.892 5.159-12.5 11.5-12.5s11.5 5.608 11.5 12.5S94.845 98 88.504 98s-11.5-5.608-11.5-12.5" fill="url(#j)" transform="matrix(1.33333 0 0 -1.33333 0 200)"/><g clip-path="url(#k)" transform="matrix(1.33333 0 0 -1.33333 0 200)"><path d="M88.504 100c-7.456 0-13.5-6.492-13.5-14.5S81.048 71 88.504 71s13.5 6.492 13.5 14.5-6.044 14.5-13.5 14.5m0-4c5.238 0 9.5-4.71 9.5-10.5S93.742 75 88.504 75s-9.5 4.71-9.5 10.5 4.262 10.5 9.5 10.5" fill="#e3a6d6"/><path d="M102.0041 85.5c0-8.008-6.044-14.5-13.5-14.5s-13.5 6.492-13.5 14.5 6.044 14.5 13.5 14.5 13.5-6.492 13.5-14.5z" fill="none" stroke="#303030" stroke-width="4" stroke-linecap="round" stroke-linejoin="round" stroke-miterlimit="10"/></g><path d="M49.996 85.5c0-6.892 5.16-12.5 11.5-12.5 6.341 0 11.5 5.608 11.5 12.5S67.837 98 61.496 98c-6.34 0-11.5-5.608-11.5-12.5" fill="url(#l)" transform="matrix(1.33333 0 0 -1.33333 0 200)"/><g clip-path="url(#m)" transform="matrix(1.33333 0 0 -1.33333 0 200)"><path d="M61.496 100c-7.456 0-13.5-6.492-13.5-14.5S54.04 71 61.496 71s13.5 6.492 13.5 14.5-6.044 14.5-13.5 14.5m0-4c5.238 0 9.5-4.71 9.5-10.5S66.734 75 61.496 75s-9.5 4.71-9.5 10.5 4.262 10.5 9.5 10.5" fill="#e3a6d6"/><path d="M74.9959 85.5c0-8.008-6.044-14.5-13.5-14.5s-13.5 6.492-13.5 14.5 6.044 14.5 13.5 14.5 13.5-6.492 13.5-14.5z" fill="none" stroke="#303030" stroke-width="4" stroke-linecap="round" stroke-linejoin="round" stroke-miterlimit="10"/><path d="M93 85.5c0-2.485-2.015-4.5-4.5-4.5S84 83.015 84 85.5s2.015 4.5 4.5 4.5 4.5-2.015 4.5-4.5" fill="#fff"/><path d="M93 85.5c0-2.485-2.015-4.5-4.5-4.5S84 83.015 84 85.5s2.015 4.5 4.5 4.5 4.5-2.015 4.5-4.5zM80.7875 62.6424l-5.787 5.787" fill="none" stroke="#303030" stroke-width="4" stroke-linecap="round" stroke-linejoin="round" stroke-miterlimit="10"/><path d="M48 85.9128c0-24.47 12.088-52.087 27-52.087s27 27.617 27 52.087" fill="none" stroke="#303030" stroke-width="4" stroke-linecap="round" stroke-linejoin="round" stroke-miterlimit="10"/><path d="M57 85.5c0-2.485 2.015-4.5 4.5-4.5s4.5 2.015 4.5 4.5-2.015 4.5-4.5 4.5-4.5-2.015-4.5-4.5" fill="#fff"/><path d="M57 85.5c0-2.485 2.015-4.5 4.5-4.5s4.5 2.015 4.5 4.5-2.015 4.5-4.5 4.5-4.5-2.015-4.5-4.5zM69.2125 62.6424l5.787 5.787" fill="none" stroke="#303030" stroke-width="4" stroke-linecap="round" stroke-linejoin="round" stroke-miterlimit="10"/><path d="M79.7917 127.3897c0-2.664-2.145-4.823-4.792-4.823-2.646 0-4.791 2.159-4.791 4.823 0 2.664 2.145 4.823 4.791 4.823 2.647 0 4.792-2.159 4.792-4.823" fill="#8cf7f7"/><path d="M79.7917 127.3897c0-2.664-2.145-4.823-4.792-4.823-2.646 0-4.791 2.159-4.791 4.823 0 2.664 2.145 4.823 4.791 4.823 2.647 0 4.792-2.159 4.792-4.823zM70 52h10M50 18h50" fill="none" stroke="#303030" stroke-width="4" stroke-linecap="round" stroke-linejoin="round" stroke-miterlimit="10"/><g clip-path="url(#n)" opacity=".19999701"><path d="M543 215h-800v-600h800zm-5-595h-790v590h790z" fill="#303030"/></g></g></svg>