<svg xmlns="http://www.w3.org/2000/svg" viewBox="0 0 200 200" height="200" width="200"><defs><linearGradient id="a" gradientTransform="matrix(0 600 600 0 -177 -65)" gradientUnits="userSpaceOnUse" x2="1"><stop offset="0" stop-color="#d887c7"/><stop offset=".229" stop-color="#d887c7"/><stop offset="1" stop-color="#00e4e4"/></linearGradient><linearGradient id="b" gradientTransform="matrix(29.95313 0 0 -29.95313 96.023 75)" gradientUnits="userSpaceOnUse" x2="1"><stop offset="0" stop-color="#cc67b9"/><stop offset=".004" stop-color="#cc67b9"/><stop offset="1" stop-color="#00efef"/></linearGradient><clipPath id="c"><path d="M0 150h150V0H0z"/></clipPath><linearGradient id="d" gradientTransform="matrix(29.95313 0 0 -29.95313 24.023 75)" gradientUnits="userSpaceOnUse" x2="1"><stop offset="0" stop-color="#00efef"/><stop offset=".996" stop-color="#cc67b9"/><stop offset="1" stop-color="#cc67b9"/></linearGradient><clipPath id="e"><path d="M0 150h150V0H0z"/></clipPath><linearGradient id="f" gradientTransform="matrix(60 0 0 -60 45 75.024)" gradientUnits="userSpaceOnUse" x2="1"><stop offset="0" stop-color="#00e4e4"/><stop offset=".771" stop-color="#d887c7"/><stop offset="1" stop-color="#d887c7"/></linearGradient><clipPath id="g"><path d="M0 150h150V0H0z"/></clipPath><clipPath id="h"><path d="M-577 535h800V-65h-800z"/></clipPath></defs><path d="M0 0h150v150H0z" fill="url(#a)" transform="matrix(1.33333 0 0 -1.33333 0 200)"/><path d="M103.915 126l-7.89-51 7.89-51h14.18l7.882 51-7.883 51z" fill="url(#b)" transform="matrix(1.33333 0 0 -1.33333 0 200)"/><g clip-path="url(#c)" transform="matrix(1.33333 0 0 -1.33333 0 200)"><path d="M119.81 128H102.2L94 75l8.202-53h17.607L128 75zm-3.62-4l7.668-49-7.478-49h-10.75l-7.582 49 7.582 49H116" fill="#8cf7f7"/><path d="M102.2 22L94 75l8.2 53h17.608L128 75l-8.192-53z" fill="none" stroke="#303030" stroke-width="4" stroke-linecap="round" stroke-linejoin="round" stroke-miterlimit="10"/><path d="M119.806 128.024l-17.6-106M102.205 128.024l17.6-106M128 75H94" fill="none" stroke="#303030" stroke-width="4" stroke-linejoin="round" stroke-miterlimit="10"/><path d="M109.25 65l-4.645 10 4.645 10h3.51l4.646-10-4.645-10z" fill="#cc67b9"/><path d="M109.25 65l-4.645 10 4.645 10h3.51l4.646-10-4.645-10z" fill="none" stroke="#303030" stroke-width="4" stroke-linejoin="round" stroke-miterlimit="10"/></g><path d="M31.906 126l-7.882-51 7.882-51h14.18l7.89 51-7.89 51z" fill="url(#d)" transform="matrix(1.33333 0 0 -1.33333 0 200)"/><g clip-path="url(#e)" transform="matrix(1.33333 0 0 -1.33333 0 200)"><path d="M47.8 128H30.19L22 75l8.192-53H47.8L56 75zm-3.615-4l7.675-49-7.49-49H33.62L26.05 75l7.573 49H44" fill="#8cf7f7"/><path d="M47.8 22L56 75l-8.2 53H30.19L22 75l8.192-53z" fill="none" stroke="#303030" stroke-width="4" stroke-linecap="round" stroke-linejoin="round" stroke-miterlimit="10"/><path d="M30.194 128.024l17.6-106M47.795 128.024l-17.6-106M22 75h34" fill="none" stroke="#303030" stroke-width="4" stroke-linejoin="round" stroke-miterlimit="10"/><path d="M40.75 65l4.645 10-4.645 10h-3.51l-4.646-10 4.645-10z" fill="#cc67b9"/><path d="M40.75 65l4.645 10-4.645 10h-3.51l-4.646-10 4.645-10z" fill="none" stroke="#303030" stroke-width="4" stroke-linejoin="round" stroke-miterlimit="10"/></g><path d="M45 78v-6l19.938-11.963 20.182.035L105 72v6L85.03 89.98l-20.012.03z" fill="url(#f)" transform="matrix(1.33333 0 0 -1.33333 0 200)"/><g clip-path="url(#g)" transform="matrix(1.33333 0 0 -1.33333 0 200)"><path d="M105 72L85.12 60.072l-20.183-.034L45 72v6l20.018 12.01 20.013-.03L105 78z" fill="none" stroke="#303030" stroke-width="4" stroke-linejoin="round" stroke-miterlimit="10"/><path d="M111 75c0-1.657-1.343-3-3-3H42c-1.657 0-3 1.343-3 3s1.343 3 3 3h66c1.657 0 3-1.343 3-3" fill="#00e4e4"/><path d="M111 75c0-1.657-1.343-3-3-3H42c-1.657 0-3 1.343-3 3s1.343 3 3 3h66c1.657 0 3-1.343 3-3z" fill="none" stroke="#303030" stroke-width="4" stroke-linejoin="round" stroke-miterlimit="10"/><path d="M93.006 75c0-9.94-8.06-18-18-18s-18 8.06-18 18 8.06 18 18 18 18-8.06 18-18" fill="#00e4e4"/><path d="M93.006 75c0-9.94-8.06-18-18-18s-18 8.06-18 18 8.06 18 18 18 18-8.06 18-18z" fill="none" stroke="#303030" stroke-width="4" stroke-linecap="round" stroke-linejoin="round" stroke-miterlimit="10"/><path d="M75 64c-6.065 0-11 4.935-11 11s4.935 11 11 11 11-4.935 11-11-4.935-11-11-11" fill="#d887c7"/><path d="M75 64c-6.065 0-11 4.935-11 11s4.935 11 11 11 11-4.935 11-11-4.935-11-11-11zM69.5 84.526l11-19.053M80.5 84.526l-11-19.053M64 75h22" fill="none" stroke="#303030" stroke-width="4" stroke-linejoin="round" stroke-miterlimit="10"/><path d="M69.227 75l2.886 5h5.774l2.886-5-2.886-5h-5.774z" fill="#8cf7f7"/><path d="M69.227 75l2.886 5h5.774l2.886-5-2.886-5h-5.774z" fill="none" stroke="#303030" stroke-width="4" stroke-linejoin="round" stroke-miterlimit="10"/><g clip-path="url(#h)" opacity=".2"><path d="M223 535h-800V-65h800zm-5-595h-790v590h790z" fill="#303030"/></g></g></svg>