<svg xmlns="http://www.w3.org/2000/svg" viewBox="0 0 200 200" height="200" width="200"><defs><linearGradient id="a" gradientTransform="matrix(0 600 600 0 -177 -225)" gradientUnits="userSpaceOnUse" x2="1"><stop offset="0" stop-color="#d887c7"/><stop offset=".229" stop-color="#d887c7"/><stop offset="1" stop-color="#00e4e4"/></linearGradient><clipPath id="b"><path d="M0 150h150V0H0z"/></clipPath><linearGradient id="c" gradientTransform="scale(22.18986) rotate(107 2.27 3.115)" gradientUnits="userSpaceOnUse" x2="1"><stop offset="0" stop-color="#d887c7"/><stop offset=".229" stop-color="#d887c7"/><stop offset="1" stop-color="#00e4e4"/></linearGradient><clipPath id="d"><path d="M0 150h150V0H0z"/></clipPath><linearGradient id="e" gradientTransform="scale(29.44464) rotate(104.9 1.347 2.663)" gradientUnits="userSpaceOnUse" x2="1"><stop offset="0" stop-color="#00e4e4"/><stop offset=".771" stop-color="#d887c7"/><stop offset="1" stop-color="#d887c7"/></linearGradient><clipPath id="f"><path d="M0 150h150V0H0z"/></clipPath><linearGradient id="g" gradientTransform="scale(17.9627) rotate(105.1 2.075 3.62)" gradientUnits="userSpaceOnUse" x2="1"><stop offset="0" stop-color="#d887c7"/><stop offset=".229" stop-color="#d887c7"/><stop offset="1" stop-color="#00e4e4"/></linearGradient><clipPath id="h"><path d="M0 150h150V0H0z"/></clipPath><linearGradient id="i" gradientTransform="scale(25.38694) rotate(59.8 -.17 4.93)" gradientUnits="userSpaceOnUse" x2="1"><stop offset="0" stop-color="#00e4e4"/><stop offset=".771" stop-color="#d887c7"/><stop offset="1" stop-color="#d887c7"/></linearGradient><clipPath id="j"><path d="M0 150h150V0H0z"/></clipPath><linearGradient id="k" gradientTransform="scale(17.102) rotate(-54.6 5.168 -1.876)" gradientUnits="userSpaceOnUse" x2="1"><stop offset="0" stop-color="#00e4e4"/><stop offset=".771" stop-color="#d887c7"/><stop offset="1" stop-color="#d887c7"/></linearGradient><clipPath id="l"><path d="M0 150h150V0H0z"/></clipPath><linearGradient id="m" gradientTransform="scale(29.44464) rotate(106.3 .284 1.815)" gradientUnits="userSpaceOnUse" x2="1"><stop offset="0" stop-color="#00e4e4"/><stop offset=".771" stop-color="#d887c7"/><stop offset="1" stop-color="#d887c7"/></linearGradient><clipPath id="n"><path d="M0 150h150V0H0z"/></clipPath><linearGradient id="o" gradientTransform="matrix(0 17.5918 17.5918 0 48.34 41.61)" gradientUnits="userSpaceOnUse" x2="1"><stop offset="0" stop-color="#d887c7"/><stop offset=".229" stop-color="#d887c7"/><stop offset="1" stop-color="#00e4e4"/></linearGradient><clipPath id="p"><path d="M0 150h150V0H0z"/></clipPath><linearGradient id="q" gradientTransform="scale(24.55597) rotate(80.4 -.466 2.465)" gradientUnits="userSpaceOnUse" x2="1"><stop offset="0" stop-color="#00e4e4"/><stop offset=".771" stop-color="#d887c7"/><stop offset="1" stop-color="#d887c7"/></linearGradient><clipPath id="r"><path d="M0 150h150V0H0z"/></clipPath><linearGradient id="s" gradientTransform="matrix(85 0 0 -85 44 107.463)" gradientUnits="userSpaceOnUse" x2="1"><stop offset="0" stop-color="#00efef"/><stop offset=".995" stop-color="#d887c7"/><stop offset="1" stop-color="#d887c7"/></linearGradient><clipPath id="t"><path d="M0 150h150V0H0z"/></clipPath><linearGradient id="u" gradientTransform="matrix(30 0 0 -30 69 107.5)" gradientUnits="userSpaceOnUse" x2="1"><stop offset="0" stop-color="#00e4e4"/><stop offset=".771" stop-color="#d887c7"/><stop offset="1" stop-color="#d887c7"/></linearGradient><clipPath id="v"><path d="M0 150h150V0H0z"/></clipPath><linearGradient id="w" gradientTransform="matrix(0 15 15 0 18 87)" gradientUnits="userSpaceOnUse" x2="1"><stop offset="0" stop-color="#00eaea"/><stop offset=".995" stop-color="#d887c7"/><stop offset="1" stop-color="#d887c7"/></linearGradient><clipPath id="x"><path d="M0 150h150V0H0z"/></clipPath><clipPath id="y"><path d="M-577 375h800v-600h-800z"/></clipPath></defs><path d="M0 0h150v150H0z" fill="url(#a)" transform="matrix(1.33333 0 0 -1.33333 0 200)"/><g clip-path="url(#b)" transform="matrix(1.33333 0 0 -1.33333 0 200)"><path d="M143.028 39.867c.68-4.082-3.85-8.345-10.114-9.52-6.264-1.177-11.893 1.178-12.57 5.261-.68 4.083 3.848 8.347 10.113 9.523 6.264 1.176 11.892-1.18 12.57-5.263z" fill="none" stroke="#303030" stroke-width="4" stroke-linejoin="round" stroke-miterlimit="10"/><path d="M121 28h25v-6h-25z" fill="#00e4e4" stroke="#303030" stroke-width="4" stroke-linejoin="round" stroke-miterlimit="10"/><path d="M124 34h19v-6h-19z" fill="#cc67b9" stroke="#303030" stroke-width="4" stroke-linejoin="round" stroke-miterlimit="10"/></g><path d="M119.2 59.217l3.753-14.005c.93-3.468 4.493-5.526 7.96-4.597 3.47.93 5.526 4.494 4.597 7.962l-3.753 14.005z" fill="url(#c)" transform="matrix(1.33333 0 0 -1.33333 0 200)"/><g clip-path="url(#d)" transform="matrix(1.33333 0 0 -1.33333 0 200)"><path d="M119.2 59.218l12.557 3.365 3.753-14.006c.93-3.468-1.13-7.032-4.596-7.96-3.468-.93-7.032 1.128-7.96 4.595z" fill="none" stroke="#303030" stroke-width="4" stroke-linejoin="round" stroke-miterlimit="10"/></g><path d="M112.207 85.317l6.988-26.08 12.557 3.365-6.99 26.08z" fill="url(#e)" transform="matrix(1.33333 0 0 -1.33333 0 200)"/><g clip-path="url(#f)" transform="matrix(1.33333 0 0 -1.33333 0 200)"><path d="M112.207 85.318l12.557 3.365 6.988-26.08-12.557-3.365z" fill="none" stroke="#303030" stroke-width="4" stroke-linejoin="round" stroke-miterlimit="10"/><path d="M124.764 88.682c.93-3.468-1.13-7.032-4.596-7.96-3.468-.93-7.032 1.128-7.96 4.595-.93 3.468 1.128 7.032 4.595 7.96 3.468.93 7.032-1.127 7.96-4.595z" fill="none" stroke="#303030" stroke-width="4" stroke-linejoin="round" stroke-miterlimit="10"/><path d="M131.622 63.085c.93-3.468-1.13-7.032-4.596-7.96-3.468-.93-7.032 1.128-7.96 4.595-.93 3.468 1.128 7.032 4.595 7.96 3.47.93 7.033-1.127 7.962-4.595" fill="#00e4e4"/><path d="M131.622 63.085c.93-3.468-1.13-7.032-4.596-7.96-3.468-.93-7.032 1.128-7.96 4.595-.93 3.468 1.128 7.032 4.595 7.96 3.47.93 7.033-1.127 7.962-4.595zM122.77 43.726c1.07-4-3.25-8.635-9.65-10.35-6.403-1.716-12.46.137-13.533 4.138-1.072 4 3.248 8.635 9.65 10.35 6.4 1.716 12.46-.137 13.532-4.138z" fill="none" stroke="#303030" stroke-width="4" stroke-linejoin="round" stroke-miterlimit="10"/><path d="M101.444 27.65l24.148 6.47 1.553-5.794-24.148-6.47z" fill="#00e4e4"/><path d="M101.444 27.65l24.148 6.47 1.553-5.794-24.148-6.47z" fill="none" stroke="#303030" stroke-width="4" stroke-linejoin="round" stroke-miterlimit="10"/><path d="M102.79 34.223l18.352 4.918 1.553-5.795-18.353-4.918z" fill="#cc67b9"/><path d="M102.79 34.223l18.352 4.918 1.553-5.795-18.353-4.918z" fill="none" stroke="#303030" stroke-width="4" stroke-linejoin="round" stroke-miterlimit="10"/></g><path d="M101.143 60.685l3.235-12.073c.526-1.966 2.313-3.337 4.343-3.337.392 0 .785.05 1.17.153 2.395.643 3.823 3.116 3.182 5.512l-3.236 12.074z" fill="url(#g)" transform="matrix(1.33333 0 0 -1.33333 0 200)"/><g clip-path="url(#h)" transform="matrix(1.33333 0 0 -1.33333 0 200)"><path d="M111.25 65.464L98.693 62.1l3.753-14.007c.778-2.904 3.404-4.82 6.274-4.82.557 0 1.123.073 1.687.224 3.467.93 5.525 4.494 4.596 7.96zm-2.828-4.9l2.717-10.14c.172-.646.083-1.32-.25-1.898-.334-.58-.874-.992-1.52-1.165-.214-.057-.433-.086-.65-.086-1.127 0-2.118.763-2.41 1.855l-2.718 10.14 4.83 1.295" fill="#00efef"/><path d="M98.693 62.1l12.557 3.365 3.753-14.006c.93-3.47-1.13-7.033-4.596-7.962-3.468-.93-7.032 1.13-7.96 4.596z" fill="none" stroke="#303030" stroke-width="4" stroke-linejoin="round" stroke-miterlimit="10"/></g><path d="M101.752 67.89l7.714-4.637 11.847 19.714-7.715 4.636z" fill="url(#i)" transform="matrix(1.33333 0 0 -1.33333 0 200)"/><g clip-path="url(#j)" transform="matrix(1.33333 0 0 -1.33333 0 200)"><path d="M112.914 90.348L99.008 67.204l11.143-6.695 13.907 23.143zm1.37-5.49l4.284-2.574-9.785-16.286-4.286 2.575z" fill="#00efef"/><path d="M112.914 90.348l11.143-6.695L110.15 60.51 99.01 67.203z" fill="none" stroke="#303030" stroke-width="4" stroke-linejoin="round" stroke-miterlimit="10"/><path d="M124.057 83.652c-1.85-3.077-5.842-4.073-8.92-2.224-3.076 1.85-4.072 5.842-2.223 8.92 1.85 3.077 5.842 4.072 8.92 2.223 3.076-1.848 4.072-5.84 2.223-8.918" fill="#cc67b9"/><path d="M124.057 83.652c-1.85-3.077-5.842-4.073-8.92-2.224-3.076 1.85-4.072 5.842-2.223 8.92 1.85 3.077 5.842 4.072 8.92 2.223 3.076-1.848 4.072-5.84 2.223-8.918z" fill="none" stroke="#303030" stroke-width="4" stroke-linejoin="round" stroke-miterlimit="10"/><path d="M111.115 65.967c.93-3.468-1.13-7.032-4.596-7.96-3.47-.93-7.033 1.128-7.962 4.595-.93 3.468 1.13 7.032 4.596 7.96 3.468.93 7.032-1.127 7.96-4.595" fill="#cc67b9"/><path d="M111.115 65.967c.93-3.468-1.13-7.032-4.596-7.96-3.47-.93-7.033 1.128-7.962 4.595-.93 3.468 1.13 7.032 4.596 7.96 3.468.93 7.032-1.127 7.96-4.595zM85.3 48.176c2.377-3.393-.098-9.225-5.527-13.027-5.43-3.802-11.756-4.133-14.132-.74-2.374 3.393.1 9.225 5.53 13.027 5.428 3.8 11.755 4.132 14.13.74z" fill="none" stroke="#303030" stroke-width="4" stroke-linejoin="round" stroke-miterlimit="10"/><path d="M70.418 26.716l20.48 14.34 3.44-4.915-20.48-14.338z" fill="#00e4e4"/><path d="M70.418 26.716l20.48 14.34 3.44-4.915-20.48-14.338z" fill="none" stroke="#303030" stroke-width="4" stroke-linejoin="round" stroke-miterlimit="10"/><path d="M69.434 33.352L84.998 44.25l3.44-4.915-15.563-10.898z" fill="#cc67b9"/><path d="M69.434 33.352L84.998 44.25l3.44-4.915-15.563-10.898z" fill="none" stroke="#303030" stroke-width="4" stroke-linejoin="round" stroke-miterlimit="10"/></g><path d="M56.393 57.207L64.71 45.33c2.06-2.94 6.112-3.656 9.052-1.597 2.94 2.06 3.656 6.113 1.597 9.053L67.04 64.663z" fill="url(#k)" transform="matrix(1.33333 0 0 -1.33333 0 200)"/><g clip-path="url(#l)" transform="matrix(1.33333 0 0 -1.33333 0 200)"><path d="M56.393 57.207l10.65 7.456 8.316-11.877c2.058-2.94 1.343-6.994-1.597-9.053-2.94-2.06-6.994-1.344-9.053 1.596z" fill="none" stroke="#303030" stroke-width="4" stroke-linejoin="round" stroke-miterlimit="10"/></g><path d="M48.28 85.277l6.99-26.08 12.557 3.365-6.99 26.08z" fill="url(#m)" transform="matrix(1.33333 0 0 -1.33333 0 200)"/><g clip-path="url(#n)" transform="matrix(1.33333 0 0 -1.33333 0 200)"><path d="M48.282 85.277l12.557 3.365 6.987-26.08-12.557-3.365z" fill="none" stroke="#303030" stroke-width="4" stroke-linejoin="round" stroke-miterlimit="10"/><path d="M60.839 88.64c.927-3.467-1.13-7.03-4.598-7.96-3.467-.93-7.03 1.13-7.96 4.596-.93 3.468 1.13 7.032 4.596 7.96 3.468.93 7.032-1.127 7.96-4.595z" fill="none" stroke="#303030" stroke-width="4" stroke-linejoin="round" stroke-miterlimit="10"/><path d="M66.743 65.09c2.06-2.94 1.344-6.994-1.596-9.053-2.94-2.06-6.994-1.344-9.053 1.597-2.06 2.94-1.344 6.993 1.596 9.052 2.94 2.06 6.994 1.345 9.053-1.596" fill="#00e4e4"/><path d="M66.743 65.09c2.06-2.94 1.344-6.994-1.596-9.053-2.94-2.06-6.994-1.344-9.053 1.597-2.06 2.94-1.344 6.993 1.596 9.052 2.94 2.06 6.994 1.345 9.053-1.596zM57.13 35.642c-.32-4.126-5.723-6.964-12.066-6.338-6.343.625-11.225 4.478-10.905 8.604.32 4.126 5.72 6.964 12.064 6.338 6.343-.625 11.225-4.478 10.905-8.604z" fill="none" stroke="#303030" stroke-width="4" stroke-linejoin="round" stroke-miterlimit="10"/><path d="M32 28h25v-6H32z" fill="#00e4e4" stroke="#303030" stroke-width="4" stroke-linejoin="round" stroke-miterlimit="10"/><path d="M35 34h19v-6H35z" fill="#cc67b9" stroke="#303030" stroke-width="4" stroke-linejoin="round" stroke-miterlimit="10"/></g><path d="M42.858 46.892c-.21-1.185.056-2.378.745-3.363.69-.986 1.72-1.642 2.905-1.85.262-.047.528-.07.79-.07 2.182 0 4.043 1.564 4.424 3.72l2.17 12.31-8.864 1.56z" fill="url(#o)" transform="matrix(1.33333 0 0 -1.33333 0 200)"/><g clip-path="url(#p)" transform="matrix(1.33333 0 0 -1.33333 0 200)"><path d="M43.407 61.518l-2.518-14.28c-.624-3.535 1.736-6.906 5.272-7.53.382-.067.76-.1 1.136-.1 3.095 0 5.838 2.22 6.394 5.373l2.517 14.28zm3.245-4.634l4.924-.868-1.824-10.34c-.21-1.198-1.243-2.068-2.454-2.068-.146 0-.295.014-.442.04-1.357.24-2.267 1.538-2.028 2.896l1.824 10.34" fill="#00efef"/><path d="M43.407 61.518L56.21 59.26l-2.518-14.28c-.624-3.534-3.995-5.895-7.53-5.272-3.536.624-5.896 3.995-5.273 7.53z" fill="none" stroke="#303030" stroke-width="4" stroke-linejoin="round" stroke-miterlimit="10"/></g><path d="M45.727 63.16l8.863-1.56 3.994 22.65-8.863 1.56z" fill="url(#q)" transform="matrix(1.33333 0 0 -1.33333 0 200)"/><g clip-path="url(#r)" transform="matrix(1.33333 0 0 -1.33333 0 200)"><path d="M48.1 88.13l-4.69-26.59 12.803-2.258 4.688 26.59zm3.244-4.635l4.924-.868-3.3-18.71-4.924.867z" fill="#00efef"/><path d="M48.1 88.13l12.8-2.258-4.687-26.59L43.41 61.54z" fill="none" stroke="#303030" stroke-width="4" stroke-linejoin="round" stroke-miterlimit="10"/><path d="M60.9 85.87c-.622-3.534-3.994-5.895-7.53-5.272-3.534.624-5.895 3.995-5.27 7.53.622 3.536 3.993 5.896 7.528 5.273 3.536-.622 5.896-3.994 5.273-7.53" fill="#cc67b9"/><path d="M60.9 85.87c-.622-3.534-3.994-5.895-7.53-5.272-3.534.624-5.895 3.995-5.27 7.53.622 3.536 3.993 5.896 7.528 5.273 3.536-.622 5.896-3.994 5.273-7.53z" fill="none" stroke="#303030" stroke-width="4" stroke-linejoin="round" stroke-miterlimit="10"/><path d="M56.3 59.774c-.623-3.535-3.995-5.896-7.53-5.273-3.535.625-5.896 3.996-5.273 7.53.624 3.537 3.995 5.897 7.53 5.274 3.536-.623 5.896-3.995 5.273-7.53" fill="#cc67b9"/><path d="M56.3 59.774c-.623-3.535-3.995-5.896-7.53-5.273-3.535.625-5.896 3.996-5.273 7.53.624 3.537 3.995 5.897 7.53 5.274 3.536-.623 5.896-3.995 5.273-7.53z" fill="none" stroke="#303030" stroke-width="4" stroke-linejoin="round" stroke-miterlimit="10"/><path d="M34 99h8v-9h-8z" fill="#00e4e4" stroke="#303030" stroke-width="4" stroke-linejoin="round" stroke-miterlimit="10"/></g><path d="M44 114.57V89h85v25.395l-51.876 11.53z" fill="url(#s)" transform="matrix(1.33333 0 0 -1.33333 0 200)"/><g clip-path="url(#t)" transform="matrix(1.33333 0 0 -1.33333 0 200)"><path d="M77.007 128L42 116V87h89v29zm.232-4.15L127 112.793V91H46v22.143z" fill="#e3a6d6"/><path d="M42 87v29l35.007 12L131 116V87z" fill="none" stroke="#303030" stroke-width="4" stroke-linecap="round" stroke-linejoin="round" stroke-miterlimit="10"/></g><path d="M69 89h30v37H69z" fill="url(#u)" transform="matrix(1.33333 0 0 -1.33333 0 200)"/><g clip-path="url(#v)" transform="matrix(1.33333 0 0 -1.33333 0 200)"><path d="M101 128H67V87h34zm-4-37H71v33h26z" fill="#8cf7f7"/><path d="M101 87H67v41h34z" fill="none" stroke="#303030" stroke-width="4" stroke-miterlimit="10"/></g><path d="M17 102c-7.583 0-15-7-15-15h32v15z" fill="url(#w)" transform="matrix(1.33333 0 0 -1.33333 0 200)"/><g clip-path="url(#x)" transform="matrix(1.33333 0 0 -1.33333 0 200)"><path d="M34 87H2c0 8 7.417 15 15 15h17z" fill="none" stroke="#303030" stroke-width="4" stroke-linecap="round" stroke-linejoin="round" stroke-miterlimit="10"/><path d="M34 87H14.333h1c0 4 4.556 8 8.6 8H34z" fill="none" stroke="#303030" stroke-width="4" stroke-linejoin="round" stroke-miterlimit="10"/><path d="M101 87l-3-10H77v4l-10 1v5z" fill="#00e4e4"/><path d="M101 87l-3-10H77v4l-10 1v5z" fill="none" stroke="#303030" stroke-width="4" stroke-linejoin="round" stroke-miterlimit="10"/><path d="M12.5 97.5c0-2.485 2.015-4.5 4.5-4.5s4.5 2.015 4.5 4.5-2.015 4.5-4.5 4.5-4.5-2.015-4.5-4.5" fill="#cc67b9"/><path d="M12.5 97.5c0-2.485 2.015-4.5 4.5-4.5s4.5 2.015 4.5 4.5-2.015 4.5-4.5 4.5-4.5-2.015-4.5-4.5z" fill="none" stroke="#303030" stroke-width="4" stroke-linejoin="round" stroke-miterlimit="10"/><g clip-path="url(#y)" opacity=".2"><path d="M223 375h-800v-600h800zm-5-595h-790v590h790z" fill="#303030"/></g></g></svg>