<svg xmlns="http://www.w3.org/2000/svg" viewBox="0 0 200 200" height="200" width="200"><defs><linearGradient id="a" gradientTransform="matrix(0 600 600 0 -17 -65)" gradientUnits="userSpaceOnUse" x2="1"><stop offset="0" stop-color="#d887c7"/><stop offset=".22851412" stop-color="#d887c7"/><stop offset="1" stop-color="#00e4e4"/></linearGradient><linearGradient id="b" gradientTransform="matrix(131 0 0 -131 15 74.845)" gradientUnits="userSpaceOnUse" x2="1"><stop offset="0" stop-color="#d887c7"/><stop offset=".00503453" stop-color="#d887c7"/><stop offset="1" stop-color="#00efef"/></linearGradient><clipPath id="c"><path d="M0 150h150V0H0z"/></clipPath><linearGradient id="d" gradientTransform="matrix(0 84 84 0 63 33)" gradientUnits="userSpaceOnUse" x2="1"><stop offset="0" stop-color="#00e4e4"/><stop offset=".77148588" stop-color="#cc67b9"/><stop offset="1" stop-color="#cc67b9"/></linearGradient><clipPath id="e"><path d="M0 150h150V0H0z"/></clipPath><linearGradient id="f" gradientTransform="matrix(73.65484 0 0 -73.65484 50.91 75)" gradientUnits="userSpaceOnUse" x2="1"><stop offset="0" stop-color="#cc67b9"/><stop offset=".22851412" stop-color="#cc67b9"/><stop offset="1" stop-color="#00e4e4"/></linearGradient><clipPath id="g"><path d="M0 150h150V0H0z"/></clipPath><linearGradient id="h" gradientTransform="matrix(20 0 0 -20 53 75)" gradientUnits="userSpaceOnUse" x2="1"><stop offset="0" stop-color="#d887c7"/><stop offset=".22851412" stop-color="#d887c7"/><stop offset="1" stop-color="#00e4e4"/></linearGradient><clipPath id="i"><path d="M0 150h150V0H0z"/></clipPath><linearGradient id="j" gradientTransform="matrix(87.25102 0 0 -87.25102 15 74.948)" gradientUnits="userSpaceOnUse" x2="1"><stop offset="0" stop-color="#dd96ce"/><stop offset=".22851412" stop-color="#dd96ce"/><stop offset="1" stop-color="#00e4e4"/></linearGradient><clipPath id="k"><path d="M0 150h150V0H0z"/></clipPath><linearGradient id="l" gradientTransform="matrix(37.3955 0 0 -37.3955 78.604 42.697)" gradientUnits="userSpaceOnUse" x2="1"><stop offset="0" stop-color="#d887c7"/><stop offset=".22851412" stop-color="#d887c7"/><stop offset="1" stop-color="#00e4e4"/></linearGradient><clipPath id="m"><path d="M0 150h150V0H0z"/></clipPath><clipPath id="n"><path d="M-417 535h800V-65h-800z"/></clipPath></defs><path d="M0 0h150v150H0z" fill="url(#a)" transform="matrix(1.33333 0 0 -1.33333 0 200)"/><path d="M29.12 108.872C20.014 99.816 15 87.705 15 74.769c0-12.734 4.959-24.7 13.963-33.694 5.979-5.969 13.41-10.251 21.555-12.43l3.881 4.279c.382.422.921.656 1.481.656.107 0 .216-.009.323-.026C58.447 33.187 60.735 33 63 33c2.265 0 4.553.187 6.797.554.109.017.216.026.323.026.551 0 1.084-.228 1.464-.637l3.75-4.03c26.073 6.9 64.247 30.208 70.666 34.195V68h-19c-1.104 0-2 .896-2 2v10c0 .531.212 1.041.588 1.416.375.374.883.584 1.412.584.002 0 19-.054 19-.054v4.945c-6.43 3.993-44.68 27.326-70.729 34.009l-3.707-3.865c-.381-.396-.904-.615-1.444-.615-.107 0-.216.008-.323.027-2.244.367-4.532.553-6.797.553-2.265 0-4.553-.186-6.797-.553-.109-.019-.216-.027-.323-.027-.539 0-1.061.217-1.441.613l-3.861 4.011c-8.062-1.992-15.461-6.184-21.458-12.172" fill="url(#b)" transform="matrix(1.33333 0 0 -1.33333 0 200)"/><g clip-path="url(#c)" transform="matrix(1.33333 0 0 -1.33333 0 200)"><path d="M51.23 123.25c-9.05-2-17.14-6.59-23.52-12.96C18.62 101.25 13 88.62 13 74.77c0-13.75 5.56-26.13 14.55-35.11 6.4-6.39 14.53-11.05 23.64-13.25l4.69 5.17C58.2 31.2 60.58 31 63 31s4.8.2 7.12.58l4.56-4.9C103.71 33.92 148 62 148 62v8h-21v10l21-.06V88s-44.36 28.12-73.37 35.12l-4.51-4.7c-2.32.38-4.7.58-7.12.58s-4.8-.2-7.12-.58zm-1.28-4.437l3.048-3.167c.761-.79 1.804-1.226 2.882-1.226.215 0 .431.017.647.053 2.136.35 4.314.527 6.473.527s4.337-.177 6.474-.527c.215-.036.431-.053.646-.053 1.08 0 2.126.438 2.886 1.231l2.893 3.014C100.561 111.979 135.6 90.947 144 85.777v-1.826L127.011 84H127c-1.059 0-2.074-.42-2.824-1.168-.753-.75-1.176-1.769-1.176-2.832V70c0-2.209 1.791-4 4-4h17v-1.777c-8.388-5.168-43.33-26.169-68.025-33.063l-2.927 3.145c-.763.82-1.827 1.275-2.928 1.275-.215 0-.431-.017-.647-.053C67.337 35.177 65.159 35 63 35s-4.337.177-6.473.527c-.216.036-.432.053-.647.053-1.119 0-2.198-.47-2.963-1.312l-3.049-3.362C42.52 33.08 35.82 37.055 30.377 42.49 21.751 51.107 17 62.57 17 74.77c0 12.399 4.805 24.006 13.536 32.689 5.461 5.452 12.135 9.349 19.414 11.354" fill="#8cf7f7"/><path d="M127 80V70h21v-8s-44.29-28.08-73.32-35.32l-4.56 4.9C67.8 31.2 65.42 31 63 31s-4.8.2-7.12.58l-4.69-5.17c-9.11 2.2-17.24 6.86-23.64 13.25C18.56 48.64 13 61.02 13 74.77c0 13.85 5.62 26.48 14.71 35.52 6.38 6.37 14.47 10.96 23.52 12.96l4.65-4.83c2.32.38 4.7.58 7.12.58s4.8-.2 7.12-.58l4.51 4.7C103.64 116.12 148 88 148 88v-8.06z" fill="none" stroke="#303030" stroke-width="4" stroke-linecap="round" stroke-linejoin="round" stroke-miterlimit="10"/><path d="M70.13 31.32c.16-3.29-2.37-6.13-5.67-6.28-.49-.03-.98-.04-1.46-.04-.42 0-.83.01-1.25.02-3.38.08-6.05 2.91-5.88 6.3l.01.26C58.2 31.2 60.58 31 63 31s4.8.2 7.12.58z" fill="#00e4e4"/><path d="M70.13 31.32c.16-3.29-2.37-6.13-5.67-6.28-.49-.03-.98-.04-1.46-.04-.42 0-.83.01-1.25.02-3.38.08-6.05 2.91-5.88 6.3l.01.26C58.2 31.2 60.58 31 63 31s4.8.2 7.12.58z" fill="none" stroke="#303030" stroke-width="4" stroke-linejoin="round" stroke-miterlimit="10"/><path d="M70.12 118.42c-2.32.38-4.7.58-7.12.58s-4.8-.2-7.12-.58c-.01.11-.01.22-.01.32 0 3.24 2.59 5.93 5.86 6 .84.02 1.7.01 2.54-.01 3.38-.08 6.02-2.94 5.85-6.31" fill="#00e4e4"/><path d="M70.12 118.42c-2.32.38-4.7.58-7.12.58s-4.8-.2-7.12-.58c-.01.11-.01.22-.01.32 0 3.24 2.59 5.93 5.86 6 .84.02 1.7.01 2.54-.01 3.38-.08 6.02-2.94 5.85-6.31zM81 75c0-2.57-.54-5.02-1.52-7.23-.35-.8-.77-1.58-1.23-2.31-1.65-2.64-3.97-4.82-6.72-6.3C68.99 57.78 66.09 57 63 57c-4.96 0-9.46 2.02-12.72 5.28C47.02 65.54 45 70.04 45 75c0 2.9.69 5.64 1.92 8.07.86 1.73 2.01 3.3 3.36 4.65 1.15 1.15 2.46 2.15 3.89 2.95C56.78 92.16 59.79 93 63 93c7.36 0 13.69-4.44 16.48-10.77C80.46 80.02 81 77.57 81 75z" fill="none" stroke="#303030" stroke-width="4" stroke-linejoin="round" stroke-miterlimit="10"/></g><path d="M57.967 116.697l2.031-41.599c.003-.066.003-.13 0-.196l-2.031-41.598C59.639 33.102 61.325 33 63 33c1.675 0 3.361.102 5.033.304l-2.031 41.598c-.003.066-.003.13 0 .196l2.031 41.599c-1.672.201-3.358.303-5.033.303-1.675 0-3.361-.102-5.033-.303" fill="url(#d)" transform="matrix(1.33333 0 0 -1.33333 0 200)"/><g clip-path="url(#e)" transform="matrix(1.33333 0 0 -1.33333 0 200)"><path d="M63 119c-2.42 0-4.8-.2-7.12-.58L58 75l-2.12-43.42C58.2 31.2 60.58 31 63 31s4.8.2 7.12.58L68 75l2.12 43.42c-2.32.38-4.7.58-7.12.58m0-4c.979 0 1.962-.036 2.943-.109l-1.938-39.696c-.007-.13-.007-.26 0-.39l1.938-39.696C64.962 35.036 63.979 35 63 35c-.979 0-1.962.036-2.943.109l1.938 39.696c.007.13.007.26 0 .39l-1.938 39.696c.981.073 1.964.109 2.943.109" fill="#8cf7f7"/><path d="M63 119c-2.42 0-4.8-.2-7.12-.58L58 75l-2.12-43.42C58.2 31.2 60.58 31 63 31s4.8.2 7.12.58L68 75l2.12 43.42c-2.32.38-4.7.58-7.12.58m0-4c.979 0 1.962-.036 2.943-.109l-1.938-39.696c-.007-.13-.007-.26 0-.39l1.938-39.696C64.962 35.036 63.979 35 63 35c-.979 0-1.962.036-2.943.109l1.938 39.696c.007.13.007.26 0 .39l-1.938 39.696c.981.073 1.964.109 2.943.109" fill="#75f5f5"/><path d="M68 75l2.12-43.42C67.8 31.2 65.42 31 63 31s-4.8.2-7.12.58L58 75l-2.12 43.42c2.32.38 4.7.58 7.12.58s4.8-.2 7.12-.58z" fill="none" stroke="#303030" stroke-width="4" stroke-linecap="round" stroke-linejoin="round" stroke-miterlimit="10"/></g><path d="M82.99 75c0-1.736-.221-3.44-.662-5.093L125 71.908v6.184l-42.676 2.002c.444-1.657.666-3.362.666-5.094" fill="url(#f)" transform="matrix(1.33333 0 0 -1.33333 0 200)"/><g clip-path="url(#g)" transform="matrix(1.33333 0 0 -1.33333 0 200)"><path d="M79.455 82.23c.98-2.21 1.535-4.66 1.535-7.23 0-2.57-.55-5.02-1.53-7.23L127 70v10zm5.333-4.255L123 76.183v-2.366l-38.211-1.793c.134.98.201 1.973.201 2.976 0 1.002-.068 1.995-.202 2.975" fill="#e3a6d6"/><path d="M127 80V70l-47.54-2.23c.98 2.21 1.53 4.66 1.53 7.23 0 2.57-.555 5.02-1.535 7.23z" fill="none" stroke="#303030" stroke-width="4" stroke-miterlimit="10"/></g><path d="M53 75c0-5.514 4.487-10 10-10s10 4.486 10 10-4.487 10-10 10-10-4.486-10-10" fill="url(#h)" transform="matrix(1.33333 0 0 -1.33333 0 200)"/><g clip-path="url(#i)" transform="matrix(1.33333 0 0 -1.33333 0 200)"><path d="M63.0005 87c-6.617 0-12.001-5.383-12.001-12s5.384-12 12.001-12c6.617 0 12 5.383 12 12s-5.383 12-12 12m0-4c4.411 0 8-3.589 8-8s-3.589-8-8-8c-4.412 0-8.001 3.589-8.001 8s3.589 8 8.001 8" fill="#e3a6d6"/><path d="M63.0005 63c-6.617 0-12.001 5.383-12.001 12s5.384 12 12.001 12c6.617 0 12-5.383 12-12s-5.383-12-12-12z" fill="none" stroke="#303030" stroke-width="4" stroke-miterlimit="10"/><path d="M13 74.77c0-13.75 5.56-26.13 14.55-35.11l-8.86 1.14C11.36 50.26 7 62.13 7 75c0 12.87 4.36 24.74 11.69 34.2l8.96 1.15.06-.06C18.62 101.25 13 88.62 13 74.77" fill="#00e4e4"/><path d="M13 74.77c0-13.75 5.56-26.13 14.55-35.11l-8.86 1.14C11.36 50.26 7 62.13 7 75c0 12.87 4.36 24.74 11.69 34.2l8.96 1.15.06-.06C18.62 101.25 13 88.62 13 74.77z" fill="none" stroke="#303030" stroke-width="4" stroke-linejoin="round" stroke-miterlimit="10"/></g><path d="M15 74.769c0-12.091 4.471-23.491 12.631-32.31l19.89 19.89C44.593 65.915 43 70.338 43 75s1.593 9.085 4.521 12.65l-19.786 19.787C19.508 98.555 15 87.034 15 74.769" fill="url(#j)" transform="matrix(1.33333 0 0 -1.33333 0 200)"/><g clip-path="url(#k)" transform="matrix(1.33333 0 0 -1.33333 0 200)"><path d="M27.7101 110.29c-9.09-9.04-14.71-21.67-14.71-35.52 0-13.75 5.56-26.13 14.55-35.11l.1-.01 22.63 22.63c-3.26 3.26-5.28 7.76-5.28 12.72 0 4.96 2.02 9.46 5.28 12.72zm.113-5.77l17.054-17.054c-2.521-3.642-3.877-7.953-3.877-12.466 0-4.514 1.356-8.824 3.877-12.466l-17.157-17.157c-6.94 8.213-10.72 18.51-10.72 29.393 0 11.05 3.817 21.471 10.823 29.75" fill="#e3a6d6"/><path d="M45 75c0-4.96 2.02-9.46 5.28-12.72L27.65 39.65l-.1.01C18.56 48.64 13 61.02 13 74.77c0 13.85 5.62 26.48 14.71 35.52l22.57-22.57C47.02 84.46 45 79.96 45 75z" fill="none" stroke="#303030" stroke-width="4" stroke-miterlimit="10"/><path d="M125 32c0-3.87-3.13-7-7-7v14c1.94 0 3.68-.78 4.95-2.05 1.27-1.27 2.05-3.01 2.05-4.95" fill="#00e4e4"/><path d="M125 32c0-3.87-3.13-7-7-7v14c1.94 0 3.68-.78 4.95-2.05 1.27-1.27 2.05-3.01 2.05-4.95z" fill="none" stroke="#303030" stroke-width="4" stroke-miterlimit="10"/></g><path d="M78.604 54.221L102.808 27H116v10h-8.94c-.502 0-.985.189-1.353.527L82.993 58.394c-1.293-1.552-2.773-2.959-4.389-4.173" fill="url(#l)" transform="matrix(1.33333 0 0 -1.33333 0 200)"/><g clip-path="url(#m)" transform="matrix(1.33333 0 0 -1.33333 0 200)"><path d="M82.73 61.35c-1.88-2.72-4.32-5.03-7.13-6.76L101.91 25H118v14h-10.94zm.397-5.797l21.227-19.499c.738-.678 1.704-1.054 2.706-1.054H114v-6h-10.294L81.487 53.989c.567.499 1.115 1.022 1.64 1.564" fill="#e3a6d6"/><path d="M118 39V25h-16.09L75.6 54.59c2.81 1.73 5.25 4.04 7.13 6.76L107.06 39z" fill="none" stroke="#303030" stroke-width="4" stroke-miterlimit="10"/><path d="M39 75c0-1.933-1.567-3.5-3.5-3.5S32 73.067 32 75s1.567 3.5 3.5 3.5S39 76.933 39 75" fill="#00e4e4"/><path d="M39 75c0-1.933-1.567-3.5-3.5-3.5S32 73.067 32 75s1.567 3.5 3.5 3.5S39 76.933 39 75z" fill="none" stroke="#303030" stroke-width="4" stroke-linejoin="round" stroke-miterlimit="10"/><path d="M42 62.4788c0-1.933-1.567-3.5-3.5-3.5s-3.5 1.567-3.5 3.5 1.567 3.5 3.5 3.5 3.5-1.567 3.5-3.5" fill="#00e4e4"/><path d="M42 62.4788c0-1.933-1.567-3.5-3.5-3.5s-3.5 1.567-3.5 3.5 1.567 3.5 3.5 3.5 3.5-1.567 3.5-3.5z" fill="none" stroke="#303030" stroke-width="4" stroke-linejoin="round" stroke-miterlimit="10"/><path d="M42 87.4788c0-1.933-1.567-3.5-3.5-3.5s-3.5 1.567-3.5 3.5 1.567 3.5 3.5 3.5 3.5-1.567 3.5-3.5" fill="#00e4e4"/><path d="M42 87.4788c0-1.933-1.567-3.5-3.5-3.5s-3.5 1.567-3.5 3.5 1.567 3.5 3.5 3.5 3.5-1.567 3.5-3.5z" fill="none" stroke="#303030" stroke-width="4" stroke-linejoin="round" stroke-miterlimit="10"/><g clip-path="url(#n)" opacity=".19999701"><path d="M383 535h-800V-65h800zm-5-595h-790v590h790z" fill="#303030"/></g></g></svg>