<svg xmlns="http://www.w3.org/2000/svg" viewBox="0 0 200 200" height="200" width="200"><defs><linearGradient id="a" gradientTransform="matrix(0 600 600 0 -17 -385)" gradientUnits="userSpaceOnUse" x2="1"><stop offset="0" stop-color="#d887c7"/><stop offset=".22851412" stop-color="#d887c7"/><stop offset="1" stop-color="#00e4e4"/></linearGradient><linearGradient id="b" gradientTransform="matrix(78 0 0 -78 36 98.5)" gradientUnits="userSpaceOnUse" x2="1"><stop offset="0" stop-color="#d887c7"/><stop offset=".22851412" stop-color="#d887c7"/><stop offset="1" stop-color="#00e4e4"/></linearGradient><clipPath id="c"><path d="M0 150h150V0H0z"/></clipPath><linearGradient id="d" gradientTransform="matrix(105.91817 0 0 -105.91817 22.04 65.5)" gradientUnits="userSpaceOnUse" x2="1"><stop offset="0" stop-color="#00e4e4"/><stop offset="1" stop-color="#d887c7"/></linearGradient><clipPath id="e"><path d="M0 150h150V0H0z"/></clipPath><linearGradient id="f" gradientTransform="matrix(87.31947 0 0 -87.31947 31.343 58)" gradientUnits="userSpaceOnUse" x2="1"><stop offset="0" stop-color="#d887c7"/><stop offset=".00503453" stop-color="#d887c7"/><stop offset="1" stop-color="#00efef"/></linearGradient><clipPath id="g"><path d="M0 150h150V0H0z"/></clipPath><linearGradient id="h" gradientTransform="matrix(56 0 0 -56 47 42)" gradientUnits="userSpaceOnUse" x2="1"><stop offset="0" stop-color="#00e4e4"/><stop offset=".77148588" stop-color="#dd96ce"/><stop offset="1" stop-color="#dd96ce"/></linearGradient><clipPath id="i"><path d="M0 150h150V0H0z"/></clipPath><linearGradient id="j" gradientTransform="matrix(23.0225 0 0 -23.0225 80 74.5)" gradientUnits="userSpaceOnUse" x2="1"><stop offset="0" stop-color="#00ecec"/><stop offset=".77148588" stop-color="#e3a6d6"/><stop offset="1" stop-color="#e3a6d6"/></linearGradient><clipPath id="k"><path d="M0 150h150V0H0z"/></clipPath><linearGradient id="l" gradientTransform="matrix(23.085 0 0 -23.085 46.915 74.5)" gradientUnits="userSpaceOnUse" x2="1"><stop offset="0" stop-color="#e3a6d6"/><stop offset=".22851412" stop-color="#e3a6d6"/><stop offset="1" stop-color="#00ecec"/></linearGradient><clipPath id="m"><path d="M0 150h150V0H0z"/></clipPath><linearGradient id="n" gradientTransform="matrix(54.7168 0 0 -54.7168 47.617 46.564)" gradientUnits="userSpaceOnUse" x2="1"><stop offset="0" stop-color="#00efef"/><stop offset=".99380857" stop-color="#dd96ce"/><stop offset="1" stop-color="#dd96ce"/></linearGradient><clipPath id="o"><path d="M0 150h150V0H0z"/></clipPath><clipPath id="p"><path d="M-417 215h800v-600h-800z"/></clipPath></defs><path d="M0 0h150v150H0z" fill="url(#a)" transform="matrix(1.33333 0 0 -1.33333 0 200)"/><path d="M68.976 126C50.779 126 36 111.341 36 93.145V71h78v22.145C114 111.341 99.172 126 80.976 126z" fill="url(#b)" transform="matrix(1.33333 0 0 -1.33333 0 200)"/><g clip-path="url(#c)" transform="matrix(1.33333 0 0 -1.33333 0 200)"><path d="M80.9758 128h-12c-19.33 0-34.976-15.525-34.976-34.855V69h82v24.145c0 19.33-15.694 34.855-35.024 34.855m0-4c17.094 0 31.024-13.762 31.024-30.855V73h-74v20.145c0 17.093 13.882 30.855 30.976 30.855h12.024" fill="#e3a6d6"/><path d="M116 69H34v24.145C34 112.475 49.646 128 68.976 128h12C100.306 128 116 112.475 116 93.145z" fill="none" stroke="#303030" stroke-width="4" stroke-miterlimit="10"/></g><path d="M64.066 109c-14.062 0-26.236-9.766-29.286-23.492L22.913 48.609C18.966 35.334 28.911 22 42.761 22h64.479c13.85 0 23.795 13.334 19.846 26.609l-11.865 36.899C112.171 99.234 99.995 109 85.935 109z" fill="url(#d)" transform="matrix(1.33333 0 0 -1.33333 0 200)"/><g clip-path="url(#e)" transform="matrix(1.33333 0 0 -1.33333 0 200)"><path d="M64.0652 109h21.87c14.061 0 26.235-9.766 29.285-23.492l11.866-36.899c3.948-13.275-5.997-26.609-19.847-26.609h-64.479c-13.849 0-23.795 13.334-19.847 26.609l11.866 36.899C37.8302 99.234 50.0042 109 64.0652 109z" fill="none" stroke="#303030" stroke-width="4" stroke-linecap="round" stroke-linejoin="round" stroke-miterlimit="10"/></g><path d="M58.38 92c-7.526 0-13.945-5.124-15.609-12.462-.015-.067-.034-.133-.056-.198L32.191 48.219c-1.77-5.735-.741-11.795 2.822-16.625C38.574 26.769 44.059 24 50.06 24h49.881c6.001 0 11.484 2.769 15.047 7.594 3.563 4.83 4.591 10.89 2.837 16.575l-10.54 31.171c-.022.065-.041.131-.055.198C105.566 86.876 99.147 92 91.62 92z" fill="url(#f)" transform="matrix(1.33333 0 0 -1.33333 0 200)"/><g clip-path="url(#g)" transform="matrix(1.33333 0 0 -1.33333 0 200)"><path d="M91.62 94H58.38c-8.41 0-15.7-5.82-17.56-14.02L30.28 48.81C26.17 35.49 36.12 22 50.06 22h49.88c13.94 0 23.89 13.49 19.78 26.81l-10.54 31.17C107.32 88.18 100.03 94 91.62 94m.19-4c6.586 0 12.108-4.484 13.564-10.905.03-.134.02-.266.064-.396l10.498-31.116c1.561-5.11.626-10.502-2.546-14.801-3.181-4.31-8.091-6.782-13.45-6.782H50.06c-5.359 0-10.257 2.472-13.438 6.782-3.173 4.299-4.095 9.691-2.534 14.801l10.521 31.116c.044.13.082.262.112.396C46.177 85.516 51.794 90 58.38 90H92" fill="#8cf7f7"/><path d="M99.94 22H50.06c-13.94 0-23.89 13.49-19.78 26.81l10.54 31.17C42.68 88.18 49.97 94 58.38 94h33.24c8.41 0 15.7-5.82 17.56-14.02l10.54-31.17C123.83 35.49 113.88 22 99.94 22z" fill="none" stroke="#303030" stroke-width="4" stroke-linecap="round" stroke-linejoin="round" stroke-miterlimit="10"/></g><path d="M47 19h56v46H47z" fill="url(#h)" transform="matrix(1.33333 0 0 -1.33333 0 200)"/><g clip-path="url(#i)" transform="matrix(1.33333 0 0 -1.33333 0 200)"><path d="M105 67H45V17h60zm-4-46H49v42h52z" fill="#e3a6d6"/><path d="M105 17H45v50h60z" fill="none" stroke="#303030" stroke-width="4" stroke-linecap="round" stroke-linejoin="round" stroke-miterlimit="10"/><path d="M79 94h-8v34c0 2.2 1.8 4 4 4s4-1.8 4-4z" fill="#00e4e4"/><path d="M79 94h-8v34c0 2.2 1.8 4 4 4s4-1.8 4-4z" fill="none" stroke="#303030" stroke-width="4" stroke-linejoin="round" stroke-miterlimit="10"/></g><path d="M91.525 84C85.183 84 80 78.175 80 71v-6h22.991c.011 3 .032 7.211.031 7.628C103.013 78.902 97.9 84 91.627 84z" fill="url(#j)" transform="matrix(1.33333 0 0 -1.33333 0 200)"/><g clip-path="url(#k)" transform="matrix(1.33333 0 0 -1.33333 0 200)"><path d="M91.6266 86h-.102c-7.456 0-13.525-6.709-13.525-15v-8h26.981s.043 9.032.042 9.631C105.0106 80.018 99.0136 86 91.6266 86m0-4c5.172 0 9.388-4.203 9.396-9.376 0-.324-.012-3.624-.023-5.624h-19v4c0 6.072 4.286 11 9.525 11h.475" fill="#e3a6d6"/><path d="M104.9807 63h-26.981v8c0 8.291 6.069 15 13.524 15h.103c7.387 0 13.384-5.982 13.396-13.369.001-.599-.042-9.631-.042-9.631z" fill="none" stroke="#303030" stroke-width="4" stroke-miterlimit="10"/></g><path d="M58.307 84c-6.269 0-11.379-5.092-11.392-11.358-.001-.414.021-4.642.033-7.642H70v6c0 7.175-5.246 13-11.587 13z" fill="url(#l)" transform="matrix(1.33333 0 0 -1.33333 0 200)"/><g clip-path="url(#m)" transform="matrix(1.33333 0 0 -1.33333 0 200)"><path d="M58.4133 86h-.106c-7.384 0-13.378-5.972-13.392-13.356-.001-.593.041-9.644.041-9.644h27.044v8c0 8.291-6.131 15-13.587 15m0-4c5.238 0 9.587-4.928 9.587-11v-4h-19.062c-.011 3-.024 5.315-.023 5.636.01 5.167 4.223 9.364 9.392 9.364h-.307" fill="#e3a6d6"/><path d="M44.9568 63h27.043v8c0 8.291-6.131 15-13.586 15h-.107c-7.384 0-13.377-5.972-13.392-13.356-.001-.593.042-9.644.042-9.644z" fill="none" stroke="#303030" stroke-width="4" stroke-miterlimit="10"/></g><path d="M47.617 65l6.094-21.616 21.264-15.256 21.266 15.256L102.334 65z" fill="url(#n)" transform="matrix(1.33333 0 0 -1.33333 0 200)"/><g clip-path="url(#o)" transform="matrix(1.33333 0 0 -1.33333 0 200)"><path d="M104.9758 67h-60l7-24.833 23-16.5 23 16.5zm-5.13-4l-5.263-18.4-19.569-14.01-19.549 14.01-5.206 18.4h49.741" fill="#75f5f5"/><path d="M74.9759 25.6667l-23 16.5-7 24.833h60l-7-24.833z" fill="none" stroke="#303030" stroke-width="4" stroke-linecap="round" stroke-linejoin="round" stroke-miterlimit="10"/><path d="M75 66V42M67 55V42M83 55V42" fill="none" stroke="#303030" stroke-width="4" stroke-linejoin="round" stroke-miterlimit="10"/><path d="M74.9758 66l-23-24h46zm0-5.781L88.6018 46h-27.252z" fill="#e3a6d6"/><path d="M74.9759 66l-23-24h46z" fill="none" stroke="#303030" stroke-width="4" stroke-linejoin="round" stroke-miterlimit="10"/><path d="M80 66c0-2.209-1.791-4-4-4h-2c-2.209 0-4 1.791-4 4v2c0 2.209 1.791 4 4 4h2c2.209 0 4-1.791 4-4z" fill="#00e4e4"/><path d="M80 66c0-2.209-1.791-4-4-4h-2c-2.209 0-4 1.791-4 4v2c0 2.209 1.791 4 4 4h2c2.209 0 4-1.791 4-4z" fill="none" stroke="#303030" stroke-width="4" stroke-linejoin="round" stroke-miterlimit="10"/><path d="M72 86h6" fill="none" stroke="#303030" stroke-width="4" stroke-linecap="round" stroke-linejoin="round" stroke-miterlimit="10"/><g clip-path="url(#p)" opacity=".19999701"><path d="M383 215h-800v-600h800zm-5-595h-790v590h790z" fill="#303030"/></g></g></svg>