<svg xmlns="http://www.w3.org/2000/svg" viewBox="0 0 200 200" height="200" width="200"><defs><linearGradient id="a" gradientTransform="matrix(0 600 600 0 -17 -225)" gradientUnits="userSpaceOnUse" x2="1"><stop offset="0" stop-color="#d887c7"/><stop offset=".22851412" stop-color="#d887c7"/><stop offset="1" stop-color="#00e4e4"/></linearGradient><linearGradient id="b" gradientTransform="matrix(0 55.66655 55.66655 0 75 16.667)" gradientUnits="userSpaceOnUse" x2="1"><stop offset="0" stop-color="#00e4e4"/><stop offset=".77148588" stop-color="#d887c7"/><stop offset="1" stop-color="#d887c7"/></linearGradient><linearGradient id="c" gradientTransform="matrix(0 45.67153 45.67153 0 75 77)" gradientUnits="userSpaceOnUse" x2="1"><stop offset="0" stop-color="#d887c7"/><stop offset=".22851412" stop-color="#d887c7"/><stop offset="1" stop-color="#00e4e4"/></linearGradient><clipPath id="d"><path d="M0 150h150V0H0z"/></clipPath><linearGradient id="e" gradientTransform="matrix(0 21.66678 21.66678 0 120.405 78)" gradientUnits="userSpaceOnUse" x2="1"><stop offset="0" stop-color="#d887c7"/><stop offset=".22851412" stop-color="#d887c7"/><stop offset="1" stop-color="#00e4e4"/></linearGradient><linearGradient id="f" gradientTransform="matrix(0 31.7119 31.7119 0 51.418 24.288)" gradientUnits="userSpaceOnUse" x2="1"><stop offset="0" stop-color="#00e4e4"/><stop offset=".77148588" stop-color="#d887c7"/><stop offset="1" stop-color="#d887c7"/></linearGradient><clipPath id="g"><path d="M0 150h150V0H0z"/></clipPath><linearGradient id="h" gradientTransform="matrix(0 20 20 0 37.337 50)" gradientUnits="userSpaceOnUse" x2="1"><stop offset="0" stop-color="#00efef"/><stop offset=".99566884" stop-color="#cc67b9"/><stop offset="1" stop-color="#cc67b9"/></linearGradient><clipPath id="i"><path d="M0 150h150V0H0z"/></clipPath><linearGradient id="j" gradientTransform="matrix(0 30 30 0 88 85.993)" gradientUnits="userSpaceOnUse" x2="1"><stop offset="0" stop-color="#00e4e4"/><stop offset=".77148588" stop-color="#d887c7"/><stop offset="1" stop-color="#d887c7"/></linearGradient><clipPath id="k"><path d="M0 150h150V0H0z"/></clipPath><clipPath id="l"><path d="M-417 375h800v-600h-800z"/></clipPath></defs><path d="M0 0h150v150H0z" fill="url(#a)" transform="matrix(1.33333 0 0 -1.33333 0 200)"/><path d="M22.083 72C23.639 44 46.735 22.001 75 22.001c28.264 0 51.361 21.999 52.916 49.999z" fill="url(#b)" transform="matrix(1.33333 0 0 -1.33333 0 200)"/><path d="M22.083 77h105.833c-1.555 28-24.652 50-52.916 50-28.265 0-51.361-22-52.917-50" fill="url(#c)" transform="matrix(1.33333 0 0 -1.33333 0 200)"/><g clip-path="url(#d)" transform="matrix(1.33333 0 0 -1.33333 0 200)"><path d="M75 128c-19.47 0-36.49-10.35-45.71-26-1.85-3.14-3.39-6.49-4.56-10-1.48-4.44-2.39-9-2.65-14h12.96c.03 1 .08 1.53.14 2.29.03.45.06.89.11 1.33.05.6.12 1.19.19 1.78.07.59.15 1.18.24 1.76.08.59.17 1.17.28 1.75.1.58.2 1.15.32 1.72.07.36.15.73.23 1.08.06.3.13.6.2.9.37 1.57.79 3.12 1.26 4.62.13.42.26.84.41 1.25.12.37.24.73.38 1.09.09.27.19.54.29.81.15.4.3.8.46 1.2.32.82.66 1.63 1.02 2.42 6.96 15.57 19.78 26 34.43 26m-35.217-18.757c-1.03-1.776-1.983-3.639-2.853-5.584-.38-.834-.752-1.717-1.094-2.594-.171-.427-.331-.854-.497-1.295-.104-.281-.207-.561-.302-.842-.159-.415-.289-.806-.4-1.147-.172-.477-.312-.929-.444-1.355-.487-1.554-.937-3.202-1.338-4.907-.076-.323-.15-.645-.216-.968-.083-.367-.166-.751-.239-1.127-.129-.614-.233-1.204-.336-1.803-.11-.581-.209-1.199-.303-1.886-.093-.602-.332-1.229-.408-1.864-.07-.596-.353-1.211-.353-1.86V82h-4.52c.415 3 1.099 5.897 2.045 8.735 1.062 3.188 2.479 6.295 4.211 9.235 2.012 3.414 4.381 6.517 7.047 9.273" fill="#8cf7f7"/><path d="M75 128c-14.65 0-27.47-10-34.43-26h12.9c-.2-1-.39-1.44-.57-2.17-.02-.1-.05-.19-.08-.29-.13-.54-.26-1.09-.38-1.64-.07-.33-.14-.66-.22-.99-.16-.74-.31-1.5-.45-2.26-.39-2.06-.72-4.19-.98-6.38-.06-.45-.11-.91-.16-1.36-.07-.58-.12-1.16-.18-1.75-.05-.52-.09-1.04-.13-1.57-.14-1.83-.24-3.59-.29-5.59h64.91c-.21 5-.91 10-2.05 14h12.38c-1.17 4-2.71 6.86-4.56 10-9.22 15.65-26.24 26-45.71 26m0-4c17.599 0 33.399-8.983 42.264-24.03.762-1.294 1.463-2.97 2.099-3.97h-6.473c-1.237 0-2.404-.572-3.161-1.549-.758-.978-1.021-2.25-.713-3.448.749-2.908 1.29-6.003 1.617-9.003H54.217c.028 0 .059.859.092 1.289.038.503.075.995.121 1.466l.055.567c.036.372.072.74.121 1.146l.013.123c.042.382.085.77.136 1.15.002.019.005.038.007.057.244 2.051.559 4.106.942 6.128.136.741.276 1.445.416 2.093.084.35.158.7.228 1.028.106.484.22.969.334 1.445.043.145.082.286.115.434.177.717.353 1.386.523 1.99.34 1.205.095 2.5-.661 3.499-.756.998-1.937 1.585-3.189 1.585h-6.308c6.796 11 17.065 18 27.838 18M99.96 72H65.01c.06-5 .23-9.57.52-14 .48-7.58 1.28-14 2.31-20H92.9c1.38 3 2.6 6.36 3.62 10 1.98 7.1 3.21 15 3.44 24m-4.073-4c-.435-7-1.551-13.143-3.162-18.921C92.026 46.587 91.166 44 90.269 42H71.222c-.746 5-1.328 10.379-1.701 16.261-.201 3.071-.346 6.739-.434 9.739H96z" fill="#8cf7f7"/></g><path d="M112.89 92c1.14-4 1.84-9 2.05-14h12.98c-.26 5-1.17 10-2.65 14z" fill="url(#e)" transform="matrix(1.33333 0 0 -1.33333 0 200)"/><path d="M53.274 56c.002 0 .004-.032.007-.046.164-.963.878-4.407 1.046-5.108.174-.742.366-1.476.562-2.179.181-.627.055-1.313-.337-1.834-.378-.502-1.043-.833-1.671-.833H33.054c1.625-2 3.438-4.567 5.418-6.614 8.038-8.365 19.493-13.837 31.309-15.098-1.26 2.468-2.653 6.541-3.908 13.351C64.905 42.907 64.146 49 63.661 56z" fill="url(#f)" transform="matrix(1.33333 0 0 -1.33333 0 200)"/><g clip-path="url(#g)" transform="matrix(1.33333 0 0 -1.33333 0 200)"><path d="M65 58H51.045c-.055 0-.098-.049-.091-.104.106-.766.222-1.53.356-2.276.17-1.01.89-4.48 1.07-5.23.181-.771.38-1.532.588-2.276.016-.058-.027-.114-.087-.114H29.563c-.045-.079-.036-.063-.08-.142 2.125-3.554 4.66-6.881 7.547-9.867C46.19 28.458 60.016 22 74.096 22h.002c.097 0 .127.144.037.183-2.469 1.082-4.657 6.932-6.295 15.813-1.026 5.588-2.046 12.37-2.527 19.916-.003.048-.313.087-.313.087zm-3.097-4c.491-6 1.16-11.869 2.052-16.725.831-4.508 1.705-7.917 2.626-10.508-10.113 1.811-19.719 6.788-26.663 14.013-.996 1.03-1.961 2.22-2.866 3.22h15.829c1.272 0 2.491.605 3.259 1.618.769 1.013 1.023 2.349.68 3.575-.206.734-.389 1.444-.55 2.13-.087.36-.335 1.677-.569 2.677H62z" fill="#e3a6d6"/><path d="M128 72h-13.06c-.21-5-.91-9.57-2.05-14-.89-3.51-2.06-7-3.47-10h11.09c1.87 3 3.43 6.49 4.64 10 1.52 4.41 2.5 9.07 2.85 13.91zm-4.235-4c-.463-3-1.303-5.865-2.279-8.696-.867-2.514-2.054-5.304-3.309-7.304h-2.894c.557 2 1.052 3.313 1.481 5.003.914 3.552 1.553 6.997 1.909 10.997H124z" fill="#8cf7f7"/></g><path d="M24.261 70c.378-4 1.201-7.693 2.454-11.359C27.738 55.62 29.029 53 30.556 50h19.857c-.594 2-1.082 5.06-1.453 7.718-.552 3.875-.868 8.282-.942 12.282z" fill="url(#h)" transform="matrix(1.33333 0 0 -1.33333 0 200)"/><g clip-path="url(#i)" transform="matrix(1.33333 0 0 -1.33333 0 200)"><path d="M50 72H22.08c.01 0 .03-.08.03-.12.28-4.83 1.21-9.49 2.71-13.88 1.19-3.51 2.72-7 4.58-10H53c-.88 3-1.57 6.49-2.06 10-.63 4.43-.94 9.12-.94 13.99zm-3.966-4c.128-4 .45-7.197.927-10.553.259-1.855.59-3.447.957-5.447H31.742c-1.225 2-2.277 4.756-3.137 7.293C27.641 62.115 26.942 65 26.516 68H46z" fill="#8cf7f7"/><path d="M125 75.06c0-1.02-.03-2.06-.08-3.06H25.08c-.05 1-.08 2.05-.08 3.06 0 .97.03 1.94.08 2.94h99.84c.05-1 .08-1.97.08-2.94" fill="#00e4e4"/></g><path d="M73 100.993c0-8.271 6.728-15 15-15 8.271 0 15 6.729 15 15s-6.729 15-15 15c-8.272 0-15-6.729-15-15" fill="url(#j)" transform="matrix(1.33333 0 0 -1.33333 0 200)"/><g clip-path="url(#k)" transform="matrix(1.33333 0 0 -1.33333 0 200)"><path d="M88 117.9929c-9.389 0-17-7.611-17-17s7.611-17 17-17 17 7.611 17 17-7.611 17-17 17m0-4c7.168 0 13-5.832 13-13s-5.832-13-13-13-13 5.832-13 13 5.832 13 13 13" fill="#e3a6d6"/><path d="M88 95.9928c-2.757 0-5 2.243-5 5s2.243 5 5 5 5-2.243 5-5-2.243-5-5-5" fill="#00e4e4"/><path d="M50.03 78c.13 4.87.57 9.57 1.28 14 .56 3.51 1.28 7 2.16 10h-12.9c6.96 16 19.645 26 34.295 26M125 92h-12.11c1.14-4 1.84-9.13 2.05-14M99.96 72c-.23-9-1.46-16.9-3.44-24-1.02-3.64-2.24-7-3.62-10H67.84c-1.03 6-1.83 12.42-2.31 20-.29 4.43-.46 9-.52 14z" fill="none" stroke="#303030" stroke-width="4" stroke-linecap="round" stroke-linejoin="round" stroke-miterlimit="10"/><path d="M51 58h14" fill="none" stroke="#303030" stroke-width="4" stroke-miterlimit="10"/><path d="M109 48h11M35.04 78c.37 8.73 2.35 16.9 5.53 24M29 48h24c-.88 3-1.57 6.49-2.06 10-.63 4.43-.94 9.12-.94 13.99V72M114.94 72c-.21-4.87-.91-9.57-2.05-14-.89-3.51-2.06-6.86-3.47-10-1.63-3.64-3.57-6.99-5.79-10-7-9.52-17.91-15.58-28.66-15.99-2.81 0-5.29 6.12-7.11 15.99M125 75.06c0-1.02-.03-2.06-.08-3.06H25.08c-.05 1-.08 2.05-.08 3.06 0 .97.03 1.94.08 2.94h99.84c.05-1 .08-1.97.08-2.94z" fill="none" stroke="#303030" stroke-width="4" stroke-linejoin="round" stroke-miterlimit="10"/><path d="M127.9165 72c-1.556-28-24.652-50-52.917-50-28.264 0-51.361 22-52.916 50zM22.0835 78c1.555 28 24.652 50 52.917 50 28.264 0 51.36-22 52.916-50z" fill="none" stroke="#303030" stroke-width="4" stroke-linecap="round" stroke-linejoin="round" stroke-miterlimit="10"/><path d="M105 100.9929c0-9.389-7.611-17-17-17s-17 7.611-17 17 7.611 17 17 17 17-7.611 17-17z" fill="none" stroke="#303030" stroke-width="4" stroke-miterlimit="10"/><path d="M85.5 96.66l-6-10.39M96.5 115.72l-6-10.4M96.5 86.27l-6 10.39M85.5 105.32l-6 10.4M83 101H71M105 101H93M88 95.9928c-2.757 0-5 2.243-5 5s2.243 5 5 5 5-2.243 5-5-2.243-5-5-5z" fill="none" stroke="#303030" stroke-width="4" stroke-linejoin="round" stroke-miterlimit="10"/><g clip-path="url(#l)" opacity=".19999701"><path d="M383 375h-800v-600h800zm-5-595h-790v590h790z" fill="#303030"/></g></g></svg>