<svg xmlns="http://www.w3.org/2000/svg" viewBox="0 0 200 200" height="200" width="200"><defs><linearGradient id="a" gradientTransform="matrix(0 600 600 0 -177 -385)" gradientUnits="userSpaceOnUse" x2="1"><stop offset="0" stop-color="#d887c7"/><stop offset=".22851412" stop-color="#d887c7"/><stop offset="1" stop-color="#00e4e4"/></linearGradient><linearGradient id="b" gradientTransform="matrix(46 0 0 -46 52 115)" gradientUnits="userSpaceOnUse" x2="1"><stop offset="0" stop-color="#d887c7"/><stop offset=".00503453" stop-color="#d887c7"/><stop offset="1" stop-color="#00e4e4"/></linearGradient><clipPath id="c"><path d="M0 150h150V0H0z"/></clipPath><linearGradient id="d" gradientTransform="matrix(46 0 0 -46 52 67.5)" gradientUnits="userSpaceOnUse" x2="1"><stop offset="0" stop-color="#d887c7"/><stop offset=".00503453" stop-color="#d887c7"/><stop offset="1" stop-color="#00efef"/></linearGradient><clipPath id="e"><path d="M0 150h150V0H0z"/></clipPath><linearGradient id="f" gradientTransform="matrix(40 0 0 -40 55 34)" gradientUnits="userSpaceOnUse" x2="1"><stop offset="0" stop-color="#d887c7"/><stop offset=".22851412" stop-color="#d887c7"/><stop offset="1" stop-color="#00e4e4"/></linearGradient><clipPath id="g"><path d="M0 150h150V0H0z"/></clipPath><linearGradient id="h" gradientTransform="matrix(0 -35.03125 -35.03125 0 111 97.03)" gradientUnits="userSpaceOnUse" x2="1"><stop offset="0" stop-color="#00e4e4"/><stop offset=".77148588" stop-color="#d887c7"/><stop offset="1" stop-color="#d887c7"/></linearGradient><clipPath id="i"><path d="M0 150h150V0H0z"/></clipPath><linearGradient id="j" gradientTransform="matrix(0 -35.03125 -35.03125 0 39 97.03)" gradientUnits="userSpaceOnUse" x2="1"><stop offset="0" stop-color="#00e4e4"/><stop offset=".77148588" stop-color="#d887c7"/><stop offset="1" stop-color="#d887c7"/></linearGradient><clipPath id="k"><path d="M0 150h150V0H0z"/></clipPath><linearGradient id="l" gradientTransform="matrix(20 0 0 -20 65 113)" gradientUnits="userSpaceOnUse" x2="1"><stop offset="0" stop-color="#56f4f4"/><stop offset=".77148588" stop-color="#d887c7"/><stop offset="1" stop-color="#d887c7"/></linearGradient><clipPath id="m"><path d="M0 150h150V0H0z"/></clipPath><clipPath id="n"><path d="M-577 215h800v-600h-800z"/></clipPath></defs><path d="M0 0h150v150H0z" fill="url(#a)" transform="matrix(1.33333 0 0 -1.33333 0 200)"/><path d="M52.673 113.529c-.163-.676-.288-1.281-.379-1.848-.195-1.21-.294-2.45-.294-3.681v-9h46v9c0 1.231-.1 2.471-.295 3.683-.091.565-.215 1.17-.378 1.841-.993 4.055-3.089 7.769-6.062 10.742C86.924 128.608 81.148 131 75 131c-10.618 0-19.799-7.186-22.327-17.471" fill="url(#b)" transform="matrix(1.33333 0 0 -1.33333 0 200)"/><g clip-path="url(#c)" transform="matrix(1.33333 0 0 -1.33333 0 200)"><path d="M75 133c-11.74 0-21.59-8.09-24.27-19-.16-.66-.3-1.32-.41-2-.21-1.3-.32-2.64-.32-4V97h50v11c0 1.36-.11 2.7-.32 4-.11.68-.25 1.34-.41 2-1.1 4.49-3.42 8.51-6.59 11.68C88.16 130.2 81.9 133 75 133m0-4c5.612 0 10.887-2.184 14.852-6.148 2.713-2.714 4.627-6.104 5.531-9.794.15-.622.264-1.176.348-1.696.179-1.104.269-2.235.269-3.362v-7H54v7c0 1.127.09 2.258.269 3.362.084.52.198 1.074.346 1.684C56.922 122.439 65.305 129 75 129" fill="#00efef"/><path d="M100 108V97H50v11c0 1.36.11 2.7.32 4 .11.68.25 1.34.41 2 2.68 10.91 12.53 19 24.27 19 6.9 0 13.16-2.8 17.68-7.32 3.17-3.17 5.49-7.19 6.59-11.68.16-.66.3-1.32.41-2 .21-1.3.32-2.64.32-4z" fill="none" stroke="#303030" stroke-width="4" stroke-linecap="round" stroke-linejoin="round" stroke-miterlimit="10"/></g><path d="M52 40h46v55.001H52z" fill="url(#d)" transform="matrix(1.33333 0 0 -1.33333 0 200)"/><g clip-path="url(#e)" transform="matrix(1.33333 0 0 -1.33333 0 200)"><path d="M100 97H50V38h50zm-4-55H54v51h42z" fill="#00efef"/><path d="M100 38H50v59h50z" fill="none" stroke="#303030" stroke-width="4" stroke-linecap="round" stroke-linejoin="round" stroke-miterlimit="10"/><path d="M102.4932 18l3.111 14h8.791l3.112-14z" fill="#d887c7"/><path d="M116 34h-12l-4-18h20zm-3.209-4l2.223-10h-10.028l2.223 10H113" fill="#8cf7f7"/><path d="M104 34h12l4-18h-20z" fill="none" stroke="#303030" stroke-width="4" stroke-linejoin="round" stroke-miterlimit="10"/></g><path d="M55 38l4.762-8h30.476L95 38z" fill="url(#f)" transform="matrix(1.33333 0 0 -1.33333 0 200)"/><g clip-path="url(#g)" transform="matrix(1.33333 0 0 -1.33333 0 200)"><path d="M90.2381 30h-30.476l-4.762 8h40z" fill="none" stroke="#303030" stroke-width="4" stroke-linecap="round" stroke-linejoin="round" stroke-miterlimit="10"/><path d="M114 64h-8V34h8z" fill="#00e4e4" stroke="#303030" stroke-width="4" stroke-linejoin="round" stroke-miterlimit="10"/></g><path d="M106 62h10v25.031c0 5.523-4.477 10-10 10z" fill="url(#h)" transform="matrix(1.33333 0 0 -1.33333 0 200)"/><g clip-path="url(#i)" transform="matrix(1.33333 0 0 -1.33333 0 200)"><path d="M106 97.0313v-35.031h10v25.031c0 5.523-4.477 10-10 10z" fill="none" stroke="#303030" stroke-width="4" stroke-linejoin="round" stroke-miterlimit="10"/><path d="M32.4932 18l3.111 14h8.791l3.112-14z" fill="#d887c7"/><path d="M46 34H34l-4-18h20zm-3.209-4l2.223-10H34.986l2.223 10H43" fill="#8cf7f7"/><path d="M46 34H34l-4-18h20z" fill="none" stroke="#303030" stroke-width="4" stroke-linejoin="round" stroke-miterlimit="10"/><path d="M36 64h8V34h-8z" fill="#00e4e4" stroke="#303030" stroke-width="4" stroke-linejoin="round" stroke-miterlimit="10"/></g><path d="M34 87.031V62h10v35.031c-5.523 0-10-4.477-10-10" fill="url(#j)" transform="matrix(1.33333 0 0 -1.33333 0 200)"/><g clip-path="url(#k)" transform="matrix(1.33333 0 0 -1.33333 0 200)"><path d="M44 97.0313v-35.031H34v25.031c0 5.523 4.477 10 10 10zM100 108v-5H50v5c0 1.36.11 3 .32 4h49.36c.21-1 .32-2.64.32-4z" fill="none" stroke="#303030" stroke-width="4" stroke-linejoin="round" stroke-miterlimit="10"/></g><path d="M65 103h20v20.001H65z" fill="url(#l)" transform="matrix(1.33333 0 0 -1.33333 0 200)"/><g clip-path="url(#m)" transform="matrix(1.33333 0 0 -1.33333 0 200)"><path d="M85 103H65v20h20z" fill="none" stroke="#303030" stroke-width="4" stroke-linejoin="round" stroke-miterlimit="10"/><path d="M79.4688 113.5c0-2.485-2.015-4.5-4.5-4.5s-4.5 2.015-4.5 4.5 2.015 4.5 4.5 4.5 4.5-2.015 4.5-4.5" fill="#00e4e4"/><path d="M79.4688 113.5c0-2.485-2.015-4.5-4.5-4.5s-4.5 2.015-4.5 4.5 2.015 4.5 4.5 4.5 4.5-2.015 4.5-4.5z" fill="none" stroke="#303030" stroke-width="4" stroke-linejoin="round" stroke-miterlimit="10"/><path d="M61 89h27M61 83h27M61 77h27" fill="none" stroke="#303030" stroke-width="4" stroke-linecap="round" stroke-linejoin="round" stroke-miterlimit="10"/><path d="M63 67h8V51h-8z" fill="#00e4e4"/><path d="M73 69H61V49h12zm-4-16h-4v12h4z" fill="#e3a6d6"/><path d="M73 49H61v20h12z" fill="none" stroke="#303030" stroke-width="4" stroke-linejoin="round" stroke-miterlimit="10"/><g clip-path="url(#n)" opacity=".19999701"><path d="M223 215h-800v-600h800zm-5-595h-790v590h790z" fill="#303030"/></g></g></svg>