<svg xmlns="http://www.w3.org/2000/svg" viewBox="0 0 200 200" height="200" width="200"><defs><linearGradient id="a" gradientTransform="matrix(0 600 600 0 143 -225)" gradientUnits="userSpaceOnUse" x2="1"><stop offset="0" stop-color="#d887c7"/><stop offset=".22851412" stop-color="#d887c7"/><stop offset="1" stop-color="#00e4e4"/></linearGradient><clipPath id="b"><path d="M0 150h150V0H0z"/></clipPath><linearGradient id="c" gradientTransform="matrix(100.01638 0 0 -100.01638 25.03 76.717)" gradientUnits="userSpaceOnUse" x2="1"><stop offset="0" stop-color="#00eaea"/><stop offset=".99496547" stop-color="#d887c7"/><stop offset="1" stop-color="#d887c7"/></linearGradient><clipPath id="d"><path d="M0 150h150V0H0z"/></clipPath><radialGradient id="e" spreadMethod="pad" gradientTransform="matrix(16.4355 0 0 -16.4355 75.313 71.008)" gradientUnits="userSpaceOnUse" r="1" cy="0" cx="0" fy="0" fx="0"><stop offset="0" stop-color="#00efef"/><stop offset=".77148588" stop-color="#d887c7"/><stop offset="1" stop-color="#d887c7"/></radialGradient><clipPath id="f"><path d="M0 150h150V0H0z"/></clipPath><linearGradient id="g" gradientTransform="matrix(64.2094 0 0 -64.2094 42.9 31.942)" gradientUnits="userSpaceOnUse" x2="1"><stop offset="0" stop-color="#dd96ce"/><stop offset=".22851412" stop-color="#dd96ce"/><stop offset="1" stop-color="#00e4e4"/></linearGradient><clipPath id="h"><path d="M0 150h150V0H0z"/></clipPath><radialGradient id="i" spreadMethod="pad" gradientTransform="matrix(37.74046 0 0 -37.74046 75.003 86.338)" gradientUnits="userSpaceOnUse" r="1" cy="0" cx="0" fy="0" fx="0"><stop offset="0" stop-color="#00efef"/><stop offset=".77148588" stop-color="#d887c7"/><stop offset="1" stop-color="#d887c7"/></radialGradient><clipPath id="j"><path d="M0 150h150V0H0z"/></clipPath><clipPath id="k"><path d="M-257 375h800v-600h-800z"/></clipPath></defs><path d="M0 0h150v150H0z" fill="url(#a)" transform="matrix(1.33333 0 0 -1.33333 0 200)"/><g clip-path="url(#b)" fill="#00e4e4" stroke="#303030" stroke-width="4" stroke-miterlimit="10" transform="matrix(1.33333 0 0 -1.33333 0 200)"><path d="M37 76h-7v19h7zM120 76h-7v19h7z"/></g><path d="M69.43 129.789c-16.823 0-30.511-13.687-30.511-30.512 0-10.627-3.272-21.172-9.46-30.496-.817-1.232-1.591-2.508-2.302-3.794-2.739-4.952-2.839-10.976-.269-16.113 4.596-9.181 11.842-17.879 21.007-25.229l12.761 9.58c.355.266.776.401 1.2.401.375 0 .752-.105 1.082-.317 3.86-2.48 7.807-3.685 12.066-3.685 3.834 0 7.637 1.314 11.626 4.02.339.23.73.344 1.122.344.425 0 .849-.134 1.205-.404l13.158-9.936c9.304 7.459 16.61 16.263 21.183 25.537 2.415 4.896 2.322 10.646-.246 15.379-.773 1.426-1.62 2.832-2.515 4.181-6.181 9.313-9.449 19.853-9.449 30.532 0 16.825-13.687 30.512-30.511 30.512z" fill="url(#c)" transform="matrix(1.33333 0 0 -1.33333 0 200)"/><g clip-path="url(#d)" transform="matrix(1.33333 0 0 -1.33333 0 200)"><path d="M80.5768 131.7888h-11.147c-17.955 0-32.511-14.556-32.511-32.511 0-10.495-3.322-20.647-9.126-29.391-.847-1.276-1.643-2.587-2.387-3.932-3.079-5.57-3.153-12.285-.305-17.976 5.243-10.478 13.391-19.591 22.764-26.858l13.991 10.506c3.733-2.398 8.063-4.003 13.148-4.003 4.744 0 9.021 1.837 12.748 4.364l14.39-10.867c9.483 7.353 17.715 16.56 22.95 27.179 2.696 5.469 2.626 11.86-.282 17.218-.806 1.486-1.676 2.931-2.607 4.333-5.8 8.738-9.115 18.887-9.115 29.374v.053c0 17.955-14.556 32.511-32.511 32.511m0-4c15.721 0 28.511-12.79 28.511-28.511v-.053c0-11.022 3.383-21.944 9.782-31.586.865-1.302 1.681-2.658 2.424-4.028 2.259-4.164 2.338-9.226.21-13.542-4.245-8.611-10.933-16.818-19.436-23.879l-11.906 8.99c-.711.538-1.56.808-2.41.808-.782 0-1.566-.229-2.245-.689-3.646-2.473-7.082-3.675-10.503-3.675-3.864 0-7.458 1.102-10.986 3.368-.66.424-1.412.635-2.161.635-.848 0-1.693-.269-2.402-.802l-11.508-8.641c-8.375 6.958-15.005 15.063-19.269 23.585-2.276 4.548-2.191 9.875.229 14.25.686 1.242 1.433 2.472 2.218 3.656 6.408 9.653 9.794 20.581 9.794 31.603 0 15.721 12.79 28.511 28.511 28.511h11.147" fill="#8cf7f7"/><path d="M80.5768 131.7888h-11.147c-17.955 0-32.511-14.556-32.511-32.511 0-10.495-3.322-20.647-9.126-29.391-.847-1.276-1.643-2.587-2.387-3.932-3.079-5.57-3.153-12.285-.305-17.976 5.243-10.478 13.391-19.591 22.764-26.858l13.991 10.506c3.733-2.398 8.063-4.003 13.148-4.003 4.744 0 9.021 1.837 12.748 4.364l14.39-10.867c9.483 7.353 17.715 16.56 22.95 27.179 2.696 5.469 2.626 11.86-.282 17.218-.806 1.486-1.676 2.931-2.607 4.333-5.8 8.738-9.115 18.887-9.115 29.374v.053c0 17.955-14.556 32.511-32.511 32.511m0-4c15.721 0 28.511-12.79 28.511-28.511v-.053c0-11.022 3.383-21.944 9.782-31.586.865-1.302 1.681-2.658 2.424-4.028 2.259-4.164 2.338-9.226.21-13.542-4.245-8.611-10.933-16.818-19.436-23.879l-11.906 8.99c-.711.538-1.56.808-2.41.808-.782 0-1.566-.229-2.245-.689-3.646-2.473-7.082-3.675-10.503-3.675-3.864 0-7.458 1.102-10.986 3.368-.66.424-1.412.635-2.161.635-.848 0-1.693-.269-2.402-.802l-11.508-8.641c-8.375 6.958-15.005 15.063-19.269 23.585-2.276 4.548-2.191 9.875.229 14.25.686 1.242 1.433 2.472 2.218 3.656 6.408 9.653 9.794 20.581 9.794 31.603 0 15.721 12.79 28.511 28.511 28.511h11.147" fill="#75f5f5"/><path d="M124.8097 65.5182c-.806 1.485-1.676 2.931-2.607 4.333-5.8 8.738-9.115 18.886-9.115 29.374v.053c0 17.955-14.556 32.511-32.511 32.511h-11.147c-17.955 0-32.511-14.556-32.511-32.511v-.001c0-10.494-3.322-20.647-9.126-29.391-.847-1.275-1.643-2.587-2.387-3.932-3.079-5.569-3.153-12.284-.305-17.976 5.243-10.477 13.391-19.591 22.764-26.857l13.991 10.505c3.733-2.398 8.064-4.002 13.148-4.002 4.744 0 9.021 1.836 12.748 4.364l14.39-10.867c9.484 7.353 17.715 16.56 22.95 27.179 2.696 5.468 2.626 11.859-.282 17.218zM48.4296 45.3278c-7.087 9.038-9.43 18.844-9.43 29.526M111 74.8543c0-10.682-2.35-20.488-9.437-29.526" fill="none" stroke="#303030" stroke-width="4" stroke-linecap="round" stroke-linejoin="round" stroke-miterlimit="10"/></g><path d="M60.664 64.779c-3.406-4.535-10.611-13.508-11.967-18.318 1.741 5.955 11.029 10.147 15.959 13.676 4.49 3.213 4.411 5.8 10.344 5.8 5.941 0 5.876-2.592 10.37-5.813 4.921-3.528 14.202-7.715 15.939-13.663-1.355 4.81-8.56 13.782-11.965 18.317C84.418 71.339 82.365 76.001 75 76.001c-7.365 0-9.411-4.661-14.336-11.222" fill="url(#e)" transform="matrix(1.33333 0 0 -1.33333 0 200)"/><g clip-path="url(#f)" transform="matrix(1.33333 0 0 -1.33333 0 200)"><path d="M101.3096 46.4611c-1.738 5.948-11.019 10.134-15.94 13.662-4.493 3.222-4.429 5.814-10.37 5.814-5.932 0-5.854-2.587-10.344-5.8-4.93-3.529-14.218-7.721-15.958-13.676 1.355 4.81 8.561 13.783 11.966 18.318 4.926 6.561 6.971 11.221 14.336 11.221 7.366 0 9.418-4.661 14.345-11.222 3.404-4.535 10.61-13.507 11.965-18.317z" fill="none" stroke="#303030" stroke-width="4" stroke-linejoin="round" stroke-miterlimit="10"/></g><path d="M68.707 43.494c-.897-1.475-2.839-1.876-4.325-.999-3.217 1.898-8.508 3.547-14.43.797-2.344-1.088-4.251-2.981-5.405-5.293-5.96-11.951 5.276-23.834 17.199-19.136 2.27.895 4.204 2.506 5.552 4.539.95 1.433 1.602 2.845 2.006 4.221.761 2.587 3.447 4.586 5.758 4.586 2.224 0 4.889-2.03 5.646-4.543.453-1.508 1.217-3.064 2.374-4.658 1.416-1.95 3.358-3.497 5.626-4.313 11.715-4.218 22.566 7.425 16.81 19.186-1.142 2.334-3.057 4.239-5.402 5.355-5.942 2.825-11.149 1.175-14.332-.727-1.496-.893-3.46-.511-4.363.978-1.303 2.149-3.664 2.585-6.359 2.585-2.694 0-5.052-.433-6.355-2.578" fill="url(#g)" transform="matrix(1.33333 0 0 -1.33333 0 200)"/><g clip-path="url(#h)" transform="matrix(1.33333 0 0 -1.33333 0 200)"><path d="M100.1156 43.2357c-5.942 2.825-11.148 1.175-14.332-.727-1.496-.893-3.46-.511-4.363.979-1.302 2.148-3.663 2.584-6.359 2.584-2.693 0-5.052-.432-6.355-2.577-.897-1.476-2.838-1.877-4.325-.999-3.217 1.898-8.508 3.547-14.43.797-2.344-1.089-4.251-2.982-5.404-5.294-5.961-11.951 5.276-23.834 17.198-19.136 2.27.895 4.205 2.506 5.553 4.539.95 1.434 1.601 2.845 2.005 4.221.761 2.588 3.447 4.587 5.758 4.587 2.224 0 4.889-2.031 5.646-4.544.454-1.507 1.218-3.064 2.374-4.657 1.417-1.951 3.358-3.498 5.626-4.314 11.716-4.219 22.567 7.425 16.81 19.187-1.142 2.333-3.056 4.239-5.402 5.354z" fill="none" stroke="#303030" stroke-width="4" stroke-miterlimit="10"/><path d="M74.5 41h1c1.381 0 2.5-1.492 2.5-2.872V27h-6v11.128C72 39.508 73.119 41 74.5 41" fill="#00e4e4"/><path d="M74.5 41h1c1.381 0 2.5-1.492 2.5-2.872V27h-6v11.128C72 39.508 73.119 41 74.5 41z" fill="none" stroke="#303030" stroke-width="4" stroke-miterlimit="10"/></g><path d="M40.518 95c0-3 .184-6.406 1.548-9.518 1.974-4.505 5.878-7.807 10.993-7.807 5.887 0 13.914 4.477 18.413 9.633 1.799 2.061 5.052 2.104 6.863.052 4.562-5.169 12.716-9.59 18.613-9.59 5.115 0 9.019 3.2 10.993 7.705 1.363 3.112 1.548 6.525 1.548 9.525z" fill="url(#i)" transform="matrix(1.33333 0 0 -1.33333 0 200)"/><g clip-path="url(#j)" transform="matrix(1.33333 0 0 -1.33333 0 200)"><path d="M40.5184 95c0-3 .184-6.406 1.548-9.518 1.973-4.505 5.878-7.807 10.992-7.807 5.888 0 13.915 4.477 18.414 9.633 1.798 2.062 5.052 2.104 6.862.053 4.563-5.17 12.717-9.591 18.614-9.591 5.114 0 9.019 3.2 10.992 7.705 1.364 3.112 1.548 6.525 1.548 9.525z" fill="none" stroke="#303030" stroke-width="4" stroke-miterlimit="10"/><path d="M103.915 95H80.693c0-5 9.843-12.076 16.255-12.076 6.413 0 6.967 7.076 6.967 12.076m-4.217-4c-.533 0-1.924-3.86-2.75-3.86-2.144 0-5.43 1.237-8.176 3.239-.339.247-.652.621-.941.621H100" fill="#e3a6d6"/><path d="M80.6929 95c0-5 9.843-12.076 16.256-12.076 6.412 0 6.966 7.076 6.966 12.076z" fill="none" stroke="#303030" stroke-width="4" stroke-miterlimit="10"/><path d="M69.314 95H46.092c0-5 .554-12.076 6.967-12.076C59.471 82.924 69.314 90 69.314 95m-7.138-4c-.289 0-.602-.266-.941-.513-2.746-2.002-6.032-3.455-8.176-3.455-.826 0-2.218-.032-2.75 3.968H62" fill="#e3a6d6"/><path d="M69.314 95c0-5-9.843-12.076-16.256-12.076-6.412 0-6.966 7.076-6.966 12.076z" fill="none" stroke="#303030" stroke-width="4" stroke-miterlimit="10"/><path d="M93.6396 26.3145c-2.738 0-4.967 2.228-4.967 4.966s2.229 4.967 4.967 4.967c2.738 0 4.966-2.229 4.966-4.967 0-2.738-2.228-4.966-4.966-4.966" fill="#00e4e4"/><path d="M93.6393 38.2474c-3.848 0-6.967-3.119-6.967-6.967 0-3.847 3.119-6.966 6.967-6.966 3.848 0 6.967 3.119 6.967 6.966 0 3.848-3.119 6.967-6.967 6.967m0-4c1.636 0 2.967-1.331 2.967-2.967 0-1.635-1.331-2.966-2.967-2.966-1.636 0-2.967 1.331-2.967 2.966 0 1.636 1.331 2.967 2.967 2.967" fill="#e3a6d6"/><path d="M100.6059 31.2807c0-3.848-3.119-6.967-6.967-6.967-3.847 0-6.966 3.119-6.966 6.967 0 3.848 3.119 6.967 6.966 6.967 3.848 0 6.967-3.119 6.967-6.967z" fill="none" stroke="#303030" stroke-width="4" stroke-miterlimit="10"/><path d="M56.3672 26.3145c-2.738 0-4.966 2.228-4.966 4.966s2.228 4.967 4.966 4.967 4.967-2.229 4.967-4.967c0-2.738-2.229-4.966-4.967-4.966" fill="#00e4e4"/><path d="M56.3676 38.2474c-3.848 0-6.967-3.119-6.967-6.967 0-3.847 3.119-6.966 6.967-6.966 3.848 0 6.967 3.119 6.967 6.966 0 3.848-3.119 6.967-6.967 6.967m0-4c1.636 0 2.967-1.331 2.967-2.967 0-1.635-1.331-2.966-2.967-2.966-1.636 0-2.967 1.331-2.967 2.966 0 1.636 1.331 2.967 2.967 2.967" fill="#e3a6d6"/><path d="M49.4009 31.2807c0-3.848 3.119-6.967 6.967-6.967 3.847 0 6.966 3.119 6.966 6.967 0 3.848-3.119 6.967-6.966 6.967-3.848 0-6.967-3.119-6.967-6.967z" fill="none" stroke="#303030" stroke-width="4" stroke-miterlimit="10"/><path d="M37.8386 67.068c-1.551-1.951-2.945-4.031-4.171-6.214M116.339 60.8538c-1.226 2.183-2.619 4.264-4.171 6.214M39.7428 60.1664c-1.31-2.062-2.443-4.245-3.39-6.53M113.6545 53.6363c-.947 2.285-2.081 4.468-3.39 6.53" fill="none" stroke="#303030" stroke-width="4" stroke-linecap="round" stroke-linejoin="round" stroke-miterlimit="10"/><path d="M112.0879 102h-74.169c-.552 0-.919-.799-.919-1.351V95h76v5.649c0 .552-.36 1.351-.912 1.351" fill="#e3a6d6"/><path d="M113 95H37v5.649c0 .552.367 1.351.919 1.351h74.169c.552 0 .912-.799.912-1.351z" fill="none" stroke="#303030" stroke-width="4" stroke-miterlimit="10"/><g clip-path="url(#k)" opacity=".19999701"><path d="M543 375h-800v-600h800zm-5-595h-790v590h790z" fill="#303030"/></g></g></svg>