<svg xmlns="http://www.w3.org/2000/svg" viewBox="0 0 200 200" height="200" width="200"><defs><linearGradient id="a" gradientTransform="matrix(0 600 600 0 143 -65)" gradientUnits="userSpaceOnUse" x2="1"><stop offset="0" stop-color="#d887c7"/><stop offset=".22851412" stop-color="#d887c7"/><stop offset="1" stop-color="#00e4e4"/></linearGradient><linearGradient id="b" gradientTransform="matrix(85.87305 0 0 -85.87305 32.063 46.248)" gradientUnits="userSpaceOnUse" x2="1"><stop offset="0" stop-color="#d887c7"/><stop offset=".22851412" stop-color="#d887c7"/><stop offset="1" stop-color="#00e4e4"/></linearGradient><clipPath id="c"><path d="M0 150h150V0H0z"/></clipPath><linearGradient id="d" gradientTransform="matrix(34 0 0 -34 58 48.5)" gradientUnits="userSpaceOnUse" x2="1"><stop offset="0" stop-color="#d887c7"/><stop offset=".22851412" stop-color="#d887c7"/><stop offset="1" stop-color="#00e4e4"/></linearGradient><clipPath id="e"><path d="M0 150h150V0H0z"/></clipPath><linearGradient id="f" gradientTransform="matrix(33.33398 0 0 -33.33398 6.666 80.496)" gradientUnits="userSpaceOnUse" x2="1"><stop offset="0" stop-color="#d887c7"/><stop offset=".22851412" stop-color="#d887c7"/><stop offset="1" stop-color="#00e4e4"/></linearGradient><clipPath id="g"><path d="M0 150h150V0H0z"/></clipPath><linearGradient id="h" gradientTransform="matrix(33.17285 0 0 -33.17285 110 80.496)" gradientUnits="userSpaceOnUse" x2="1"><stop offset="0" stop-color="#00e4e4"/><stop offset=".77148588" stop-color="#d887c7"/><stop offset="1" stop-color="#d887c7"/></linearGradient><clipPath id="i"><path d="M0 150h150V0H0z"/></clipPath><linearGradient id="j" gradientTransform="matrix(66 0 0 -66 42 80.996)" gradientUnits="userSpaceOnUse" x2="1"><stop offset="0" stop-color="#56f4f4"/><stop offset=".99496547" stop-color="#d887c7"/><stop offset="1" stop-color="#d887c7"/></linearGradient><clipPath id="k"><path d="M0 150h150V0H0z"/></clipPath><linearGradient id="l" gradientTransform="matrix(66 0 0 -66 42 72.495)" gradientUnits="userSpaceOnUse" x2="1"><stop offset="0" stop-color="#00f1f1"/><stop offset=".99496547" stop-color="#d887c7"/><stop offset="1" stop-color="#d887c7"/></linearGradient><clipPath id="m"><path d="M0 150h150V0H0z"/></clipPath><linearGradient id="n" gradientTransform="matrix(57.20898 0 0 -57.20898 46.396 103.49)" gradientUnits="userSpaceOnUse" x2="1"><stop offset="0" stop-color="#d887c7"/><stop offset=".00503453" stop-color="#d887c7"/><stop offset="1" stop-color="#00f1f1"/></linearGradient><clipPath id="o"><path d="M0 150h150V0H0z"/></clipPath><clipPath id="p"><path d="M-257 535h800V-65h-800z"/></clipPath></defs><path d="M0 0h150v150H0z" fill="url(#a)" transform="matrix(1.33333 0 0 -1.33333 0 200)"/><path d="M32.063 29h85.874C116.709 48 97.92 63.496 75 63.496 52.08 63.496 33.291 48 32.063 29" fill="url(#b)" transform="matrix(1.33333 0 0 -1.33333 0 200)"/><g clip-path="url(#c)" transform="matrix(1.33333 0 0 -1.33333 0 200)"><path d="M75 65.4958c-24.853 0-45-17.496-45-38.496h90c0 21-20.147 38.496-45 38.496m0-4c21 0 38.363-13.496 40.726-30.496H34.274c2.363 17 19.726 30.496 40.726 30.496" fill="#8cf7f7"/><path d="M120 27H30c0 21 20.147 38.496 45 38.496S120 48 120 27z" fill="none" stroke="#303030" stroke-width="4" stroke-linejoin="round" stroke-miterlimit="10"/></g><path d="M58 38h34v21.001H58z" fill="url(#d)" transform="matrix(1.33333 0 0 -1.33333 0 200)"/><g clip-path="url(#e)" transform="matrix(1.33333 0 0 -1.33333 0 200)"><path d="M94 61H56V36h38zm-4-21H60v17h30z" fill="#e3a6d6"/><path d="M94 61H56V36h38z" fill="none" stroke="#303030" stroke-width="4" stroke-linejoin="round" stroke-miterlimit="10"/></g><path d="M6.666 89l4.371-4.592C18.549 76.518 29.105 71.992 40 71.992V89z" fill="url(#f)" transform="matrix(1.33333 0 0 -1.33333 0 200)"/><g clip-path="url(#g)" transform="matrix(1.33333 0 0 -1.33333 0 200)"><path d="M42 91H2l7.589-7.967C17.514 74.708 28.506 70 40 70h2zm-4-4V74.046c-9.632.515-18.839 4.729-25.514 11.741L11.331 87H38" fill="#e3a6d6"/><path d="M40 70h2v21H2l7.589-7.967C17.514 74.708 28.506 70 40 70z" fill="none" stroke="#303030" stroke-width="4" stroke-linejoin="round" stroke-miterlimit="10"/></g><path d="M110 89V71.992c10.428 0 20.232 4.062 27.605 11.438l5.568 5.57z" fill="url(#h)" transform="matrix(1.33333 0 0 -1.33333 0 200)"/><g clip-path="url(#i)" transform="matrix(1.33333 0 0 -1.33333 0 200)"><path d="M148 91h-40V70h2c10.885 0 21.323 4.321 29.019 12.019L148 91.002zm-9.827-4l-2.07-2.157c-6.521-6.524-14.961-10.315-24.103-10.798V87h26" fill="#e3a6d6"/><path d="M108 70h2c10.885 0 21.323 4.321 29.019 12.019L148 91h-40z" fill="none" stroke="#303030" stroke-width="4" stroke-linejoin="round" stroke-miterlimit="10"/></g><path d="M42 80.996c0-18.196 14.803-33 33-33 18.196 0 33 14.804 33 33 0 18.197-14.804 33-33 33-18.197 0-33-14.803-33-33" fill="url(#j)" transform="matrix(1.33333 0 0 -1.33333 0 200)"/><g clip-path="url(#k)" transform="matrix(1.33333 0 0 -1.33333 0 200)"><path d="M75 115.9958c-19.33 0-35-15.67-35-35s15.67-35 35-35 35 15.67 35 35-15.67 35-35 35m0-4c17.094 0 31-13.907 31-31s-13.906-31-31-31-31 13.907-31 31 13.906 31 31 31" fill="#8cf7f7"/><path d="M110 80.9958c0-19.33-15.67-35-35-35s-35 15.67-35 35 15.67 35 35 35 35-15.67 35-35z" fill="none" stroke="#303030" stroke-width="4" stroke-linecap="round" stroke-linejoin="round" stroke-miterlimit="10"/></g><path d="M80.779 91.628c-1.462-1.681-3.568-2.646-5.779-2.646s-4.318.965-5.785 2.651C66.281 95.038 62.01 96.99 57.5 96.99c-8.072 0-14.862-6.298-15.45-14.259 0-.048-.002-.097-.005-.144-.019-.247-.028-.502-.037-.751C42 81.556 42 81.278 42 81c0-18.196 14.803-33 33-33 18.196 0 33 14.804 33 33 0 .278 0 .556-.009.83-.009.255-.017.51-.036.757-.002.028-.003.078-.004.125-.623 8.012-7.398 14.278-15.451 14.278-4.51 0-8.78-1.952-11.721-5.362" fill="url(#l)" transform="matrix(1.33333 0 0 -1.33333 0 200)"/><g clip-path="url(#m)" transform="matrix(1.33333 0 0 -1.33333 0 200)"><path d="M92.525 98.99c-5.29 0-10.043-2.34-13.242-6.05-1.136-1.305-2.709-1.957-4.277-1.957-1.567 0-3.138.652-4.273 1.957-3.2 3.71-7.967 6.05-13.256 6.05C48.257 98.99 41 91.86 40 82.8v-.07c0-.27-.005-.55-.015-.83-.01-.3.002-.6.002-.9 0-19.33 15.677-35 35.007-35s35.003 15.67 35.003 35c0 .3.026.6.016.9-.01.28-.013.56-.013.83v.07c-1 9.06-8.255 16.19-17.475 16.19m-.025-4c6.99 0 12.874-5.421 13.451-12.363.002-.064.005-.129.01-.193.016-.22.023-.448.031-.667.009-.256.008-.511.008-.767 0-17.093-13.907-31-31-31-17.094 0-31 13.907-31 31 0 .256-.001.511.007.757.009.229.016.457.032.677.005.064.008.129.01.193.576 6.942 6.461 12.363 13.451 12.363 3.927 0 7.645-1.699 10.212-4.675 1.842-2.118 4.498-3.332 7.288-3.332s5.446 1.214 7.299 3.344c2.556 2.964 6.274 4.663 10.201 4.663" fill="#00efef"/><path d="M110 81c0-19.33-15.67-35-35-35S40 61.67 40 81c0 .3-.025.6-.015.9.01.28.015.56.015.83v.07c1 9.06 8.255 16.19 17.475 16.19 5.29 0 10.043-2.34 13.242-6.05 2.271-2.61 6.277-2.61 8.547 0 3.2 3.71 7.968 6.05 13.258 6.05 9.22 0 16.478-7.13 17.478-16.19v-.07c0-.27.005-.55.015-.83.01-.3-.015-.6-.015-.9z" fill="none" stroke="#303030" stroke-width="4" stroke-linecap="round" stroke-linejoin="round" stroke-miterlimit="10"/></g><path d="M46.396 97.492c3.166 2.206 7.004 3.498 11.104 3.498 5.674 0 11.048-2.458 14.74-6.737.712-.819 1.691-1.27 2.76-1.27 1.068 0 2.048.451 2.755 1.264 3.697 4.285 9.072 6.743 14.745 6.743 4.101 0 7.937-1.292 11.104-3.498C97.895 107.393 87.197 114 75 114s-22.895-6.607-28.604-16.508" fill="url(#n)" transform="matrix(1.33333 0 0 -1.33333 0 200)"/><g clip-path="url(#o)" transform="matrix(1.33333 0 0 -1.33333 0 200)"><path d="M75 116c-18.73 0-34.02-14.71-34.95-33.2.67 9.06 8.23 16.19 17.45 16.19 5.29 0 10.03-2.34 13.23-6.05 1.135-1.305 2.702-1.957 4.27-1.957 1.568 0 3.135.652 4.27 1.957 3.2 3.71 7.94 6.05 13.23 6.05 9.22 0 16.78-7.13 17.45-16.19C109.02 101.29 93.73 116 75 116m0-4c8.808 0 16.784-3.668 22.438-9.589-1.589.379-3.243.579-4.938.579-6.256 0-12.182-2.711-16.248-7.425-.441-.507-.974-.582-1.252-.582s-.811.075-1.241.57c-4.077 4.726-10.003 7.437-16.259 7.437-1.695 0-3.349-.2-4.938-.579C58.216 108.332 66.192 112 75 112" fill="#00efef"/><path d="M109.95 82.8c-.67 9.06-8.23 16.19-17.45 16.19-5.29 0-10.03-2.34-13.23-6.05-2.27-2.61-6.27-2.61-8.54 0-3.2 3.71-7.94 6.05-13.23 6.05-9.22 0-16.78-7.13-17.45-16.19C40.98 101.29 56.27 116 75 116c18.73 0 34.02-14.71 34.95-33.2z" fill="none" stroke="#303030" stroke-width="4" stroke-linecap="round" stroke-linejoin="round" stroke-miterlimit="10"/><path d="M92.5 69.9922c-6.341 0-11.5 5.159-11.5 11.5s5.159 11.5 11.5 11.5 11.5-5.159 11.5-11.5-5.159-11.5-11.5-11.5z" fill="none" stroke="#303030" stroke-width="4" stroke-linecap="round" stroke-linejoin="round" stroke-miterlimit="10"/><path d="M92.5 76.9922c-2.481 0-4.5 2.019-4.5 4.5s2.019 4.5 4.5 4.5 4.5-2.019 4.5-4.5-2.019-4.5-4.5-4.5" fill="#00e4e4"/><path d="M92.5 76.9922c-2.481 0-4.5 2.019-4.5 4.5s2.019 4.5 4.5 4.5 4.5-2.019 4.5-4.5-2.019-4.5-4.5-4.5zM57.5 69.9922c-6.341 0-11.5 5.159-11.5 11.5s5.159 11.5 11.5 11.5 11.5-5.159 11.5-11.5-5.159-11.5-11.5-11.5z" fill="none" stroke="#303030" stroke-width="4" stroke-linecap="round" stroke-linejoin="round" stroke-miterlimit="10"/><path d="M57.5 76.9922c2.481 0 4.5 2.019 4.5 4.5s-2.019 4.5-4.5 4.5-4.5-2.019-4.5-4.5 2.019-4.5 4.5-4.5" fill="#00e4e4"/><path d="M57.5 76.9922c2.481 0 4.5 2.019 4.5 4.5s-2.019 4.5-4.5 4.5-4.5-2.019-4.5-4.5 2.019-4.5 4.5-4.5zM47 86h21M47 77h21M82 86h21M82 77h21M61 58h28M73 86h4M67.8904 75.8838l-6.879-17.872M82.0978 75.9383l6.89-17.927" fill="none" stroke="#303030" stroke-width="4" stroke-linecap="round" stroke-linejoin="round" stroke-miterlimit="10"/><path d="M75 67.9961c-3.032 0-5.5 2.468-5.5 5.5s2.468 5.5 5.5 5.5 5.5-2.468 5.5-5.5-2.468-5.5-5.5-5.5" fill="#00e4e4"/><path d="M75 80.9958c-4.142 0-7.5-3.358-7.5-7.5 0-4.142 3.358-7.5 7.5-7.5 4.142 0 7.5 3.358 7.5 7.5 0 4.142-3.358 7.5-7.5 7.5m0-4c1.93 0 3.5-1.57 3.5-3.5s-1.57-3.5-3.5-3.5-3.5 1.57-3.5 3.5 1.57 3.5 3.5 3.5" fill="#e3a6d6"/><path d="M82.5 73.4958c0 4.142-3.358 7.5-7.5 7.5-4.142 0-7.5-3.358-7.5-7.5 0-4.142 3.358-7.5 7.5-7.5 4.142 0 7.5 3.358 7.5 7.5z" fill="none" stroke="#303030" stroke-width="4" stroke-miterlimit="10"/><path d="M110 91l9.167 9.167M110 91l2.167 12.167M40 91l-9.167 9.167M40 91l-2.167 12.167" fill="none" stroke="#303030" stroke-width="4" stroke-linecap="round" stroke-linejoin="round" stroke-miterlimit="10"/><g clip-path="url(#p)" opacity=".19999701"><path d="M543 535h-800V-65h800zm-5-595h-790v590h790z" fill="#303030"/></g></g></svg>